<?xml version="1.0" encoding="utf-8"?>
<!-- Generator: Adobe Illustrator 19.0.0, SVG Export Plug-In . SVG Version: 6.00 Build 0)  -->
<svg version="1.1" id="Calque_1" xmlns="http://www.w3.org/2000/svg" xmlns:xlink="http://www.w3.org/1999/xlink" x="0px" y="0px"
	 viewBox="-1843.4 1022.8 156.4 58.9" style="enable-background:new -1843.4 1022.8 156.4 58.9;" xml:space="preserve">
<style type="text/css">
	.st0{opacity:0.5;}
	.st1{fill:#0E733D;enable-background:new    ;}
	.st2{fill:#2BC070;}
	.st3{fill:#FFFFFF;}
</style>
<title>logo-white</title>
<desc>Created with Sketch.</desc>
<g class="st0">
	<ellipse id="XMLID_40_" class="st1" cx="-1755.7" cy="1074" rx="27.4" ry="4.5"/>
	<ellipse id="XMLID_54_" class="st1" cx="-1777.7" cy="1074" rx="29" ry="4.7"/>
</g>
<path class="st2" d="M-1778.9,1028.1"/>
<g>
	<g>
		<path class="st3" d="M-1755.8,1051.4c-0.2-0.2-0.6-0.5-0.9-0.5h-4.5c-1.1-2.9-2.6-5.8-4.1-6.8c-5.7-3.8-20.6-3.8-26.4,0
			c-1.7,1.1-3.1,3.9-4.1,6.8h-4.5c-0.4,0-0.7,0.1-0.9,0.5c-0.2,0.2-0.4,0.6-0.2,0.9l0.7,3.2c0.1,0.6,0.6,0.9,1.2,0.9h1.3
			c-1.3,1.5-1.9,3.3-1.9,5.2c0,2.4,0.8,4.4,2.5,5.9l0,0v4.5c0,0.9,0.8,1.8,1.8,1.8h4.1c0.9,0,1.8-0.8,1.8-1.8v-1.8h23.1v1.8
			c0,0.9,0.8,1.8,1.8,1.8h4.1c0.9,0,1.8-0.8,1.8-1.8v-4.4c1.7-1.5,2.5-3.7,2.5-5.8c0-1.9-0.6-3.9-2-5.4h1.4c0.6,0,1.1-0.4,1.2-0.9
			l0.7-3.2C-1755.4,1052-1755.6,1051.6-1755.8,1051.4z M-1789.8,1047c4.5-2.9,17.9-2.9,22.5,0c0.8,0.6,2,2.9,3.1,5.8h-28.5
			C-1791.8,1050-1790.6,1047.6-1789.8,1047z M-1795.1,1062.3c0-1.9,1.5-3.5,3.5-3.5c1.9,0,3.5,1.5,3.5,3.5s-1.5,3.5-3.5,3.5
			C-1793.5,1065.7-1795.1,1064.1-1795.1,1062.3z M-1765.5,1065.7c-1.9,0-3.5-1.5-3.5-3.5c0-2,1.5-3.5,3.5-3.5c1.9,0,3.5,1.5,3.5,3.5
			C-1761.9,1064.1-1763.5,1065.7-1765.5,1065.7z"/>
	</g>
</g>
<g>
	<g id="Layer_1_117_">
		<g>
			<path class="st3" d="M-1743.1,1064.6c-1.3,0-2.4,1.1-2.4,2.4v4.8c0,1.3,1.1,2.4,2.4,2.4s2.4-1.1,2.4-2.4v-4.8
				C-1740.7,1065.7-1741.8,1064.6-1743.1,1064.6z"/>
			<path class="st3" d="M-1734.4,1050h-4.6c-0.5-1.7-2.1-3-4-3s-3.5,1.2-4,3h-4.5c-0.7,0-1.2,0.5-1.2,1.2c0,0.7,0.5,1.2,1.2,1.2h4.6
				l0,0c0.3,1,1,1.8,1.8,2.4c-3.2,1-5.6,3.9-5.6,7.4v6.2c0,1.1,0.9,2,2,2h1.6v-3.4c0-2.3,1.9-4.2,4.2-4.2s4.2,1.9,4.2,4.2v3.4h1.6
				c1.1,0,2-0.9,2-2v-6.2c0-3.5-2.4-6.5-5.6-7.4c0.9-0.5,1.5-1.4,1.8-2.4l0,0h4.6c0.7,0,1.2-0.5,1.2-1.2
				C-1733.3,1050.6-1733.8,1050-1734.4,1050z M-1743.1,1053.6c-1.3,0-2.4-1.1-2.4-2.4s1.1-2.4,2.4-2.4s2.4,1.1,2.4,2.4
				C-1740.6,1052.6-1741.7,1053.6-1743.1,1053.6z"/>
		</g>
	</g>
</g>
</svg>
