<?xml version="1.0" encoding="utf-8"?>
<!-- Generator: Adobe Illustrator 19.0.0, SVG Export Plug-In . SVG Version: 6.00 Build 0)  -->
<svg version="1.1" id="Calque_1" xmlns="http://www.w3.org/2000/svg" xmlns:xlink="http://www.w3.org/1999/xlink" x="0px" y="0px"
	 viewBox="-1843.4 1022.8 156.4 58.9" style="enable-background:new -1843.4 1022.8 156.4 58.9;" xml:space="preserve">
<style type="text/css">
	.st0{opacity:0.5;fill:#0E733D;enable-background:new    ;}
	.st1{fill:#FFFFFF;}
	.st2{fill:none;stroke:#FFFFFF;stroke-width:4;stroke-linecap:round;stroke-linejoin:round;stroke-miterlimit:10;}
	.st3{fill:#2BC070;}
	.st4{fill:#C0392B;}
</style>
<title>logo-white</title>
<desc>Created with Sketch.</desc>
<ellipse id="XMLID_40_" class="st0" cx="-1721" cy="1077.7" rx="23.2" ry="3.8"/>
<ellipse id="XMLID_54_" class="st0" cx="-1808.4" cy="1077.7" rx="24.6" ry="4"/>
<g id="Page-1">
	<g id="A4" transform="translate(-321.000000, -266.000000)">
		<g id="logos" transform="translate(0.000000, 233.000000)">
			<g id="logo-white" transform="translate(326.000000, 37.000000)">
				<path id="XMLID_45_" class="st1" d="M-1725.6,1073.6c-6.9,0-13.7-2.6-19-7.8c-5.1-5-7.9-11.7-7.9-18.8s2.8-13.8,7.9-18.8
					c10.5-10.4,27.5-10.4,37.9,0c1.1,1.1,1.1,2.9,0,4s-2.9,1.1-4,0c-8.3-8.2-21.7-8.2-30,0c-4,4-6.2,9.2-6.2,14.8s2.2,10.9,6.2,14.8
					c8.3,8.2,21.7,8.2,30,0c1.1-1.1,2.9-1.1,4,0s1.1,2.9,0,4C-1711.8,1071-1718.7,1073.6-1725.6,1073.6z"/>
				<path id="XMLID_44_" class="st1" d="M-1725.7,1065.3c-4.5,0-9-1.6-12.5-4.9c-3.6-3.3-5.7-7.9-5.8-12.8
					c-0.2-4.9,1.6-9.6,4.9-13.2c6.9-7.4,18.6-7.8,26-0.9c1.1,1.1,1.2,2.9,0.1,4s-2.9,1.2-4,0.1c-5.1-4.8-13.2-4.5-18,0.6
					c-2.3,2.5-3.5,5.7-3.4,9.1c0.1,3.4,1.5,6.5,4,8.8c5.1,4.8,13.2,4.5,18-0.6c1.1-1.1,2.9-1.2,4-0.1c1.1,1.1,1.2,2.9,0.1,4
					C-1715.8,1063.4-1720.8,1065.3-1725.7,1065.3z"/>
				<path id="XMLID_43_" class="st1" d="M-1725.5,1057.3c-2.6,0-5.3-1-7.3-3c-2-1.9-3-4.5-3-7.2c0-2.7,1.1-5.3,3-7.2
					c4-3.9,10.5-3.9,14.5,0c1.1,1.1,1.1,2.9,0,4s-2.9,1.1-4,0c-1.8-1.8-4.7-1.8-6.5,0c-0.9,0.8-1.3,2-1.3,3.1c0,1.2,0.5,2.3,1.3,3.2
					c1.8,1.8,4.7,1.8,6.5,0c1.1-1.1,2.9-1.1,4,0s1.1,2.9,0,4C-1720.3,1056.3-1722.9,1057.3-1725.5,1057.3z"/>
			</g>
		</g>
	</g>
</g>
<g id="XMLID_52_">
	<g id="XMLID_53_">
		<path id="XMLID_48_" class="st1" d="M-1764.9,1060c-0.5,0-1-0.2-1.4-0.6c-0.8-0.8-0.8-2-0.1-2.9l4.5-4.7l-4.5-4.7
			c-0.8-0.8-0.7-2.1,0.1-2.9c0.8-0.8,2.1-0.7,2.9,0.1l5.8,6.1c0.7,0.8,0.7,2,0,2.8l-5.8,6.1C-1763.8,1059.7-1764.4,1060-1764.9,1060
			z"/>
	</g>
</g>
<line id="XMLID_49_" class="st2" x1="-1761.2" y1="1051.7" x2="-1778.6" y2="1051.7"/>
<path class="st1" d="M-1799,1071.2h-17.9c-5.6,0-10.1-4.6-10.1-10.1v-18.2c0-5.6,4.6-10.1,10.1-10.1h17.9c5.6,0,10.1,4.6,10.1,10.1
	v18.2C-1788.9,1066.6-1793.4,1071.2-1799,1071.2z"/>
<path class="st3" d="M-1777.2,1036.8"/>
<path class="st4" d="M-1793.5,1043c0-2.6-2.2-4.9-4.9-4.9c-1.3,0-2.5,0.5-3.4,1.4c-0.9-0.9-2.1-1.4-3.4-1.4c-2.7,0-4.9,2.2-4.9,4.9
	c0,4.2,6.2,9.7,8.3,9.7S-1793.5,1047.2-1793.5,1043z"/>
</svg>
