<?xml version="1.0" encoding="utf-8"?>
<!-- Generator: Adobe Illustrator 19.0.0, SVG Export Plug-In . SVG Version: 6.00 Build 0)  -->
<svg version="1.1" id="Capa_1" xmlns="http://www.w3.org/2000/svg" xmlns:xlink="http://www.w3.org/1999/xlink" x="0px" y="0px"
	 viewBox="-7 -92.5 484.5 484.5" style="enable-background:new -7 -92.5 484.5 484.5;" xml:space="preserve">
<style type="text/css">
	.st0{fill:#2BC070;}
</style>
<g>
	<g id="directions-subway">
		<path class="st0" d="M235.2-92.5c-112.2,0-204,12.8-204,102v242.2c0,48.5,40.8,89.2,89.2,89.2l-38.2,38.2V392h306v-12.8L350,341
			c48.5,0,89.2-40.8,89.2-89.2V9.5C439.2-79.8,347.5-92.5,235.2-92.5z M120.5,290c-20.4,0-38.2-17.9-38.2-38.2s17.8-38.2,38.2-38.2
			s38.2,17.9,38.2,38.2S140.9,290,120.5,290z M209.8,137H82.2V9.5h127.5V137z M350,290c-20.4,0-38.2-17.9-38.2-38.2
			s17.9-38.2,38.2-38.2s38.2,17.9,38.2,38.2S370.4,290,350,290z M388.2,137H260.8V9.5h127.5V137z"/>
	</g>
</g>
</svg>
