<?xml version="1.0" encoding="utf-8"?>
<!-- Generator: Adobe Illustrator 19.0.0, SVG Export Plug-In . SVG Version: 6.00 Build 0)  -->
<svg version="1.1" id="Capa_1" xmlns="http://www.w3.org/2000/svg" xmlns:xlink="http://www.w3.org/1999/xlink" x="0px" y="0px"
	 viewBox="-685.8 206 408 484.5" style="enable-background:new -685.8 206 408 484.5;" xml:space="preserve">
<style type="text/css">
	.st0{fill:#2BC070;}
</style>
<g>
	<g id="directions-bus">
		<path class="st0" d="M-685.8,563c0,23,10.2,43.3,25.5,56.1V665c0,15.3,10.2,25.5,25.5,25.5h25.5c15.3,0,25.5-10.2,25.5-25.5v-25.5
			h204V665c0,15.3,10.2,25.5,25.5,25.5h25.5c15.3,0,25.5-10.2,25.5-25.5v-45.9c15.3-12.8,25.5-33.1,25.5-56.1V308
			c0-89.2-91.8-102-204-102s-204,12.8-204,102V563z M-596.5,588.5c-20.4,0-38.2-17.8-38.2-38.2s17.8-38.2,38.2-38.2
			s38.2,17.8,38.2,38.2S-576.1,588.5-596.5,588.5z M-367,588.5c-20.4,0-38.2-17.8-38.2-38.2s17.9-38.2,38.2-38.2
			s38.2,17.8,38.2,38.2S-346.6,588.5-367,588.5z M-328.8,435.5h-306V308h306V435.5z"/>
	</g>
</g>
</svg>
