<?xml version="1.0" encoding="utf-8"?>
<!-- Generator: Adobe Illustrator 19.0.0, SVG Export Plug-In . SVG Version: 6.00 Build 0)  -->
<svg version="1.1" id="Capa_1" xmlns="http://www.w3.org/2000/svg" xmlns:xlink="http://www.w3.org/1999/xlink" x="0px" y="0px"
	 viewBox="-717 298.5 484.5 484.5" style="enable-background:new -717 298.5 484.5 484.5;" xml:space="preserve">
<style type="text/css">
	.st0{fill:#C0392B;}
</style>
<g>
	<g id="directions-bus">
		<path class="st0" d="M-678.8,655.5c0,23,10.2,43.3,25.5,56.1v45.9c0,15.3,10.2,25.5,25.5,25.5h25.5c15.3,0,25.5-10.2,25.5-25.5
			V732h204v25.5c0,15.3,10.2,25.5,25.5,25.5h25.5c15.3,0,25.5-10.2,25.5-25.5v-45.9c15.3-12.8,25.5-33.1,25.5-56.1v-255
			c0-89.2-91.8-102-204-102s-204,12.8-204,102V655.5z M-589.5,681c-20.4,0-38.2-17.8-38.2-38.2s17.8-38.2,38.2-38.2
			s38.2,17.8,38.2,38.2S-569.1,681-589.5,681z M-360,681c-20.4,0-38.2-17.8-38.2-38.2s17.9-38.2,38.2-38.2s38.2,17.8,38.2,38.2
			S-339.6,681-360,681z M-321.8,528h-306V400.5h306V528z"/>
	</g>
</g>
</svg>
