<?xml version="1.0" encoding="utf-8"?>
<!-- Generator: Adobe Illustrator 19.0.0, SVG Export Plug-In . SVG Version: 6.00 Build 0)  -->
<svg version="1.1" id="Calque_1" xmlns="http://www.w3.org/2000/svg" xmlns:xlink="http://www.w3.org/1999/xlink" x="0px" y="0px"
	 viewBox="0 0 200 200" style="enable-background:new 0 0 200 200;" xml:space="preserve">
<style type="text/css">
	.st0{fill:#B7B7B7;}
</style>
<path id="XMLID_3_" class="st0" d="M63.4,96H7.8c-4.6,0-8.3-4.1-8.3-9s3.7-9,8.3-9h55.6c3.7,0,15.7-1.4,15.7-18.4
	c0-3.5-0.8-6.2-2.3-7.8c-1.5-1.6-3.4-1.9-4.4-1.9c-0.6,0-5.9,0.2-5.9,6.1c0,4.9-3.7,8.8-8.3,8.8s-8.3-3.9-8.3-8.8
	c0-13.5,9.6-23.7,22.4-23.7c6.2,0,11.9,2.5,16.2,7.1c3.3,3.5,7.1,10.1,7.1,20.4C95.6,81,82.3,96,63.4,96z"/>
<path id="XMLID_4_" class="st0" d="M72.1,191.5c-12.6,0-22.2-10.1-22.2-23.5c0-4.9,3.7-8.8,8.3-8.8s8.3,3.9,8.3,8.8
	c0,5.6,4.7,5.9,5.7,5.9c1,0,3-0.3,4.6-1.9c1.6-1.7,2.4-4.2,2.4-7.7c0-5.3-1.5-17.3-15.7-17.3H7.8c-4.6,0-8.3-4.1-8.3-9s3.7-9,8.3-9
	h55.6c19.2,0,32.2,14.1,32.2,35.1c0,10.5-3.9,16.8-7.2,20.3C84.1,189,78.3,191.5,72.1,191.5z"/>
<path id="XMLID_5_" class="st0" d="M113.8,121H12.1c-4.6,0-8.3-3.6-8.3-8.5c0-4.9,3.7-8.5,8.3-8.5h101.7c11.5,0,15.7-9.6,15.7-18.5
	c0-3.5-0.8-6.2-2.3-7.8c-1.5-1.6-3.4-1.9-4.4-1.9c-0.6,0-5.9,0.2-5.9,6.1c0,4.9-3.7,8.8-8.3,8.8c-4.6,0-8.3-3.9-8.3-8.8
	c0-13.5,9.6-23.8,22.4-23.8c6.2,0,11.9,2.5,16.1,7.1c3.2,3.5,7.1,9.6,7.1,19.9C146,106.4,132.8,121,113.8,121z"/>
</svg>
