<?xml version="1.0" encoding="utf-8"?>
<!-- Generator: Adobe Illustrator 19.0.0, SVG Export Plug-In . SVG Version: 6.00 Build 0)  -->
<svg version="1.1" id="Capa_1" xmlns="http://www.w3.org/2000/svg" xmlns:xlink="http://www.w3.org/1999/xlink" x="0px" y="0px"
	 viewBox="-1872 1038 45.7 42.9" style="enable-background:new -1872 1038 45.7 42.9;" xml:space="preserve">
<style type="text/css">
	.st0{fill:#2BC070;}
</style>
<g>
	<g>
		<path class="st0" d="M-1862.6,1062.1c-5.2,0-9.4,4.2-9.4,9.4s4.2,9.4,9.4,9.4s9.4-4.2,9.4-9.4S-1857.4,1062.1-1862.6,1062.1z
			 M-1862.6,1076.9c-3,0-5.4-2.4-5.4-5.4s2.4-5.4,5.4-5.4s5.4,2.4,5.4,5.4C-1857.2,1074.4-1859.6,1076.9-1862.6,1076.9z"/>
		<path class="st0" d="M-1835.7,1062.1c-5.2,0-9.4,4.2-9.4,9.4s4.2,9.4,9.4,9.4c5.2,0,9.4-4.2,9.4-9.4S-1830.5,1062.1-1835.7,1062.1
			z M-1835.7,1076.9c-3,0-5.4-2.4-5.4-5.4s2.4-5.4,5.4-5.4s5.4,2.4,5.4,5.4C-1830.3,1074.4-1832.7,1076.9-1835.7,1076.9z"/>
		<path class="st0" d="M-1847.2,1061.8l-5.1-4.5l5.5-5.2l2.6,3.9c0.5,0.8,1.4,1.3,2.4,1.3l5.1,0.2c1.6,0.1,3-1.2,3.1-2.9
			c0.1-1.7-1.2-3-2.9-3.1l-3.5-0.1l-3.7-5.6c-0.5-0.7-1.3-1.2-2.2-1.3c-0.9-0.1-1.8,0.2-2.4,0.8l-10.4,10c-0.6,0.6-0.9,1.4-0.9,2.2
			c0,0.8,0.4,1.6,1,2.2l6.5,5.7v10.2c0,1.6,1.3,3,3,3c1.7,0,3-1.3,3-3V1064C-1846.2,1063.2-1846.6,1062.3-1847.2,1061.8z"/>
		<circle class="st0" cx="-1839.6" cy="1042" r="4"/>
	</g>
</g>
</svg>
