<?xml version="1.0" encoding="utf-8"?>
<!-- Generator: Adobe Illustrator 19.0.0, SVG Export Plug-In . SVG Version: 6.00 Build 0)  -->
<svg version="1.1" id="Capa_1" xmlns="http://www.w3.org/2000/svg" xmlns:xlink="http://www.w3.org/1999/xlink" x="0px" y="0px"
	 viewBox="-1089.1 598.8 43.9 93.7" style="enable-background:new -1089.1 598.8 43.9 93.7;" xml:space="preserve">
<style type="text/css">
	.st0{fill:#2BC070;}
</style>
<g>
	<path class="st0" d="M-1046,648.5l-9.4-10.3c-0.6-0.6-1.1-2-1.1-2.8l-0.3-10.7v-0.3c0-1.7-1.3-3-3-3h-9.2h-3.6
		c-1.5,0-3.1,1-3.8,2.4l-12.4,26.2c-0.3,0.7-0.4,1.5-0.1,2.3s0.8,1.3,1.6,1.7l1.8,0.8c0.4,0.2,0.8,0.3,1.2,0.3l0,0
		c1.2,0,2.3-0.7,2.8-1.7l5.8-11.5v11.6c0,0.1-0.1,0.1-0.1,0.2l-9.8,30.6c-0.4,1.3-0.3,2.6,0.3,3.8s1.7,2,3,2.3l0.7,0.2
		c0.4,0.1,0.9,0.2,1.3,0.2c2.3,0,4.3-1.5,5-3.6l9.1-28.6l3.2,7.9c0.8,1.9,1.6,5.3,1.9,7.4l1.6,14.6c0.2,2.3,2.1,4,4.4,4
		c0.4,0,0.8,0,1.1-0.1l0.7-0.2c2.6-0.6,4.5-3.3,4.1-6l-2.3-17.8c-0.3-2.3-1.3-5.8-2.2-7.9l-3.1-7.1c0-0.1-0.1-0.2-0.1-0.3v-4.8
		l5.6,5.8c0.6,0.6,1.3,0.9,2.1,0.9c0.8,0,1.6-0.3,2.1-0.9l1-1.1C-1045,651.7-1044.9,649.7-1046,648.5z"/>
	<path class="st0" d="M-1065.5,618.8c5.5,0,10-4.5,10-10s-4.5-10-10-10s-10,4.5-10,10S-1071,618.8-1065.5,618.8z"/>
</g>
</svg>
