<?xml version="1.0" encoding="utf-8"?>
<!-- Generator: Adobe Illustrator 19.0.0, SVG Export Plug-In . SVG Version: 6.00 Build 0)  -->
<svg version="1.1" id="Capa_1" xmlns="http://www.w3.org/2000/svg" xmlns:xlink="http://www.w3.org/1999/xlink" x="0px" y="0px"
	 viewBox="-936 518.3 45.7 45.7" style="enable-background:new -936 518.3 45.7 45.7;" xml:space="preserve">
<style type="text/css">
	.st0{fill:#C0392B;}
</style>
<g>
	<g>
		<path class="st0" d="M-926.6,543.8c-5.2,0-9.4,4.2-9.4,9.4s4.2,9.4,9.4,9.4c5.2,0,9.4-4.2,9.4-9.4S-921.4,543.8-926.6,543.8z
			 M-926.6,558.6c-3,0-5.4-2.4-5.4-5.4c0-3,2.4-5.4,5.4-5.4c3,0,5.4,2.4,5.4,5.4C-921.2,556.1-923.6,558.6-926.6,558.6z"/>
		<path class="st0" d="M-899.7,543.8c-5.2,0-9.4,4.2-9.4,9.4s4.2,9.4,9.4,9.4c5.2,0,9.4-4.2,9.4-9.4S-894.5,543.8-899.7,543.8z
			 M-899.7,558.6c-3,0-5.4-2.4-5.4-5.4c0-3,2.4-5.4,5.4-5.4c3,0,5.4,2.4,5.4,5.4C-894.3,556.1-896.7,558.6-899.7,558.6z"/>
		<path class="st0" d="M-911.2,543.5l-5.1-4.5l5.5-5.2l2.6,3.9c0.5,0.8,1.4,1.3,2.4,1.3l5.1,0.2c1.6,0.1,3-1.2,3.1-2.9
			c0.1-1.7-1.2-3-2.9-3.1l-3.5-0.1l-3.7-5.6c-0.5-0.7-1.3-1.2-2.2-1.3c-0.9-0.1-1.8,0.2-2.4,0.8l-10.4,10c-0.6,0.6-0.9,1.4-0.9,2.2
			c0,0.8,0.4,1.6,1,2.2l6.5,5.7v10.2c0,1.6,1.3,3,3,3c1.7,0,3-1.3,3-3v-11.6C-910.2,544.9-910.6,544-911.2,543.5z"/>
		<circle class="st0" cx="-903.6" cy="523.7" r="4"/>
	</g>
</g>
</svg>
