<?xml version="1.0" encoding="utf-8"?>
<!-- Generator: Adobe Illustrator 19.0.0, SVG Export Plug-In . SVG Version: 6.00 Build 0)  -->
<svg version="1.1" id="Calque_1" xmlns="http://www.w3.org/2000/svg" xmlns:xlink="http://www.w3.org/1999/xlink" x="0px" y="0px"
	 viewBox="0 0 47.1 47.1" style="enable-background:new 0 0 47.1 47.1;" xml:space="preserve">
<style type="text/css">
	.st0{fill:#0E733D;}
</style>
<g id="XMLID_1_">
	<g id="XMLID_72_">
		<line id="XMLID_70_" x1="6" y1="6" x2="41.1" y2="41.1"/>
		<path id="XMLID_71_" class="st0" d="M41.1,47.1c-1.5,0-3.1-0.6-4.2-1.8L1.8,10.2c-2.3-2.3-2.3-6.1,0-8.5c2.3-2.3,6.1-2.3,8.5,0
			l35.1,35.1c2.3,2.3,2.3,6.1,0,8.5C44.2,46.6,42.7,47.1,41.1,47.1z"/>
	</g>
	<g id="XMLID_69_">
		<line id="XMLID_67_" x1="6" y1="41.1" x2="41.1" y2="6"/>
		<path id="XMLID_68_" class="st0" d="M6,47.1c-1.5,0-3.1-0.6-4.2-1.8c-2.3-2.3-2.3-6.1,0-8.5L36.9,1.8c2.3-2.3,6.1-2.3,8.5,0
			c2.3,2.3,2.3,6.1,0,8.5L10.2,45.4C9.1,46.6,7.5,47.1,6,47.1z"/>
	</g>
</g>
</svg>
