<?xml version="1.0" encoding="utf-8"?>
<!-- Generator: Adobe Illustrator 19.0.0, SVG Export Plug-In . SVG Version: 6.00 Build 0)  -->
<svg version="1.1" id="Calque_1" xmlns="http://www.w3.org/2000/svg" xmlns:xlink="http://www.w3.org/1999/xlink" x="0px" y="0px"
	 viewBox="0 0 200 200" style="enable-background:new 0 0 200 200;" xml:space="preserve">
<style type="text/css">
	.st0{fill:none;stroke:#B7B7B7;stroke-width:5;stroke-linecap:round;}
	.st1{fill:#B7B7B7;stroke:#FFFFFF;stroke-width:11;stroke-miterlimit:10;}
	.st2{fill:none;stroke:#B7B7B7;stroke-width:7;stroke-linecap:round;}
	.st3{fill:#B7B7B7;stroke:#FFFFFF;stroke-width:12;stroke-miterlimit:10;}
	.st4{fill:none;stroke:#B7B7B7;stroke-width:10;stroke-linecap:round;}
	.st5{fill:none;}
	.st6{fill:#B7B7B7;stroke:#B7B7B7;stroke-width:3;stroke-miterlimit:10;}
</style>
<path id="Path-17_2_" class="st0" d="M169.4,24.3c-6.1,4.2-13.9,21-17,29.4"/>
<path id="_x2A__5_" class="st1" d="M159.8,11.8c-0.6,0.7-0.4,1.5,0.4,2.7l6.9,7.1c-3.5,1.2-6.5,2.3-9.2,3.4
	c-1.3,0.4-1.8,1.2-1.5,2.4c0.3,1,1.1,1.3,2.4,1.1c1.3-0.4,3.1-0.9,5.2-1.5c2.1-0.6,3.6-0.9,4.4-1.1c-0.7,3-1.3,6.3-1.8,9.9
	c-0.2,1.5,0.3,2.3,1.4,2.6c0.4,0.1,0.8,0,1.3-0.4c0.4-0.4,0.7-0.8,0.9-1.3c0.3-0.9,0.7-2.5,1.3-4.7c0.6-2.2,1-3.9,1.3-4.9
	c1.7,1.6,4.3,3.7,7.6,6.4c0.9,1,1.8,1,2.9,0c0.6-0.7,0.4-1.5-0.4-2.7l-6.9-7.1c3.5-1.2,6.5-2.3,9.2-3.4c1.3-0.4,1.8-1.2,1.5-2.4
	c-0.3-1-1.1-1.3-2.4-1.1c-1.3,0.4-3.1,0.9-5.2,1.5c-2.1,0.6-3.6,0.9-4.4,1.1c0.7-3,1.3-6.3,1.8-9.9c0.2-1.5-0.3-2.3-1.4-2.6
	c-0.4-0.1-0.8,0-1.3,0.4c-0.4,0.4-0.7,0.8-0.9,1.3c-0.3,0.9-0.7,2.5-1.3,4.7s-1,3.9-1.3,4.9c-1.7-1.6-4.3-3.7-7.6-6.4
	C161.8,10.8,160.9,10.8,159.8,11.8z"/>
<path id="Path-17_1_" class="st2" d="M115.5,64.9c7.6,7.4,14.5,33.2,16.7,45.9"/>
<path id="_x2A__4_" class="st3" d="M132.2,49.7c0.7,1.1,0.2,2.3-1.3,3.6l-11.6,8.4c4.7,2.5,8.8,4.9,12.2,7.1
	c1.8,0.9,2.3,2.2,1.5,3.8c-0.7,1.3-1.9,1.6-3.7,0.9c-1.8-0.9-4.1-2-7-3.4s-4.9-2.2-6-2.7c0.3,4.5,0.3,9.3,0.2,14.4
	c-0.1,2.2-1,3.3-2.6,3.3c-0.6,0.1-1.2-0.2-1.7-0.9c-0.5-0.6-0.8-1.3-0.9-2.1c-0.1-1.3-0.3-3.7-0.6-7c-0.3-3.3-0.5-5.8-0.6-7.3
	c-2.9,1.8-7,4.2-12.5,7.1c-1.5,1.2-2.9,0.9-4.1-0.7c-0.7-1.1-0.2-2.3,1.3-3.6l11.6-8.4c-4.7-2.5-8.8-4.9-12.2-7.1
	c-1.8-0.9-2.3-2.2-1.5-3.8c0.7-1.3,1.9-1.6,3.7-0.9c1.8,0.9,4.1,2,7,3.4c2.9,1.3,4.9,2.2,6,2.7c-0.3-4.5-0.3-9.3-0.2-14.4
	c0.1-2.2,1-3.3,2.6-3.3c0.6-0.1,1.2,0.2,1.7,0.9c0.5,0.6,0.8,1.3,0.9,2.1c0.1,1.3,0.3,3.7,0.6,7c0.3,3.3,0.5,5.8,0.6,7.3
	c2.9-1.8,7-4.2,12.5-7.1C129.6,47.8,131,48.1,132.2,49.7z"/>
<path id="Path-17" class="st4" d="M52,86.2c4.2,14.7-5.7,51.7-12,69.1"/>
<path id="_x2A__3_" class="st3" d="M83.8,79.4c0.1,1.8-1.3,3-4.2,3.6l-20.6,2c4.1,6.5,7.5,12.4,10.2,17.7c1.6,2.4,1.3,4.4-0.9,5.8
	c-1.8,1.1-3.6,0.6-5.3-1.6c-1.6-2.4-3.7-5.5-6.4-9.3c-2.7-3.8-4.5-6.3-5.6-7.7c-2.8,5.7-6.2,11.7-10.1,18c-1.7,2.6-3.6,3.3-5.6,2.2
	c-0.8-0.4-1.3-1.1-1.5-2.3c-0.2-1.2-0.1-2.3,0.4-3.2c0.8-1.8,2.2-4.8,4.2-9.2c2-4.3,3.5-7.5,4.5-9.5C37.9,86,31,85.9,22,85.5
	c-2.7,0.4-4.3-0.9-4.7-3.8c-0.1-1.8,1.3-3,4.2-3.6l20.6-2c-4.1-6.5-7.5-12.4-10.2-17.7c-1.6-2.4-1.3-4.4,0.9-5.8
	c1.8-1.1,3.6-0.6,5.3,1.6c1.6,2.4,3.7,5.5,6.4,9.3c2.7,3.8,4.5,6.3,5.6,7.7c2.8-5.7,6.2-11.7,10.1-18c1.7-2.6,3.6-3.3,5.6-2.2
	c0.8,0.4,1.3,1.1,1.5,2.3c0.2,1.2,0.1,2.3-0.4,3.2c-0.8,1.8-2.2,4.8-4.2,9.2c-2,4.3-3.5,7.5-4.5,9.5c4.9-0.2,11.8-0.1,20.8,0.3
	C81.8,75.2,83.4,76.4,83.8,79.4z"/>
<rect id="frame" x="-11.2" y="-16" class="st5" width="214.2" height="214.2"/>
<path id="_x2A_" class="st6" d="M83.8,79.4c0.1,1.8-1.3,3-4.2,3.6l-20.6,2c4.1,6.5,7.5,12.4,10.2,17.7c1.6,2.4,1.3,4.4-0.9,5.8
	c-1.8,1.1-3.6,0.6-5.3-1.6c-1.6-2.4-3.7-5.5-6.4-9.3c-2.7-3.8-4.5-6.3-5.6-7.7c-2.8,5.7-6.2,11.7-10.1,18c-1.7,2.6-3.6,3.3-5.6,2.2
	c-0.8-0.4-1.3-1.1-1.5-2.3c-0.2-1.2-0.1-2.3,0.4-3.2c0.8-1.8,2.2-4.8,4.2-9.2c2-4.3,3.5-7.5,4.5-9.5C37.9,86,31,85.9,22,85.5
	c-2.7,0.4-4.3-0.9-4.7-3.8c-0.1-1.8,1.3-3,4.2-3.6l20.6-2c-4.1-6.5-7.5-12.4-10.2-17.7c-1.6-2.4-1.3-4.4,0.9-5.8
	c1.8-1.1,3.6-0.6,5.3,1.6c1.6,2.4,3.7,5.5,6.4,9.3c2.7,3.8,4.5,6.3,5.6,7.7c2.8-5.7,6.2-11.7,10.1-18c1.7-2.6,3.6-3.3,5.6-2.2
	c0.8,0.4,1.3,1.1,1.5,2.3c0.2,1.2,0.1,2.3-0.4,3.2c-0.8,1.8-2.2,4.8-4.2,9.2c-2,4.3-3.5,7.5-4.5,9.5c4.9-0.2,11.8-0.1,20.8,0.3
	C81.8,75.2,83.4,76.4,83.8,79.4z"/>
<path id="_x2A__1_" class="st6" d="M132.2,49.7c0.7,1.1,0.2,2.3-1.3,3.6l-11.6,8.4c4.7,2.5,8.8,4.9,12.2,7.1
	c1.8,0.9,2.3,2.2,1.5,3.8c-0.7,1.3-1.9,1.6-3.7,0.9c-1.8-0.9-4.1-2-7-3.4s-4.9-2.2-6-2.7c0.3,4.5,0.3,9.3,0.2,14.4
	c-0.1,2.2-1,3.3-2.6,3.3c-0.6,0.1-1.2-0.2-1.7-0.9c-0.5-0.6-0.8-1.3-0.9-2.1c-0.1-1.3-0.3-3.7-0.6-7c-0.3-3.3-0.5-5.8-0.6-7.3
	c-2.9,1.8-7,4.2-12.5,7.1c-1.5,1.2-2.9,0.9-4.1-0.7c-0.7-1.1-0.2-2.3,1.3-3.6l11.6-8.4c-4.7-2.5-8.8-4.9-12.2-7.1
	c-1.8-0.9-2.3-2.2-1.5-3.8c0.7-1.3,1.9-1.6,3.7-0.9c1.8,0.9,4.1,2,7,3.4c2.9,1.3,4.9,2.2,6,2.7c-0.3-4.5-0.3-9.3-0.2-14.4
	c0.1-2.2,1-3.3,2.6-3.3c0.6-0.1,1.2,0.2,1.7,0.9c0.5,0.6,0.8,1.3,0.9,2.1c0.1,1.3,0.3,3.7,0.6,7c0.3,3.3,0.5,5.8,0.6,7.3
	c2.9-1.8,7-4.2,12.5-7.1C129.6,47.8,131,48.1,132.2,49.7z"/>
<path id="_x2A__2_" class="st6" d="M159.8,11.8c-0.6,0.7-0.4,1.5,0.4,2.7l6.9,7.1c-3.5,1.2-6.5,2.3-9.2,3.4
	c-1.3,0.4-1.8,1.2-1.5,2.4c0.3,1,1.1,1.3,2.4,1.1c1.3-0.4,3.1-0.9,5.2-1.5c2.1-0.6,3.6-0.9,4.4-1.1c-0.7,3-1.3,6.3-1.8,9.9
	c-0.2,1.5,0.3,2.3,1.4,2.6c0.4,0.1,0.8,0,1.3-0.4c0.4-0.4,0.7-0.8,0.9-1.3c0.3-0.9,0.7-2.5,1.3-4.7c0.6-2.2,1-3.9,1.3-4.9
	c1.7,1.6,4.3,3.7,7.6,6.4c0.9,1,1.8,1,2.9,0c0.6-0.7,0.4-1.5-0.4-2.7l-6.9-7.1c3.5-1.2,6.5-2.3,9.2-3.4c1.3-0.4,1.8-1.2,1.5-2.4
	c-0.3-1-1.1-1.3-2.4-1.1c-1.3,0.4-3.1,0.9-5.2,1.5c-2.1,0.6-3.6,0.9-4.4,1.1c0.7-3,1.3-6.3,1.8-9.9c0.2-1.5-0.3-2.3-1.4-2.6
	c-0.4-0.1-0.8,0-1.3,0.4c-0.4,0.4-0.7,0.8-0.9,1.3c-0.3,0.9-0.7,2.5-1.3,4.7s-1,3.9-1.3,4.9c-1.7-1.6-4.3-3.7-7.6-6.4
	C161.8,10.8,160.9,10.8,159.8,11.8z"/>
</svg>
