<?xml version="1.0" encoding="utf-8"?>
<!-- Generator: Adobe Illustrator 19.0.0, SVG Export Plug-In . SVG Version: 6.00 Build 0)  -->
<svg version="1.1" id="Capa_1" xmlns="http://www.w3.org/2000/svg" xmlns:xlink="http://www.w3.org/1999/xlink" x="0px" y="0px"
	 viewBox="-939 521.9 39.1 39.1" style="enable-background:new -939 521.9 39.1 39.1;" xml:space="preserve">
<style type="text/css">
	.st0{fill:#C0392B;}
</style>
<g>
	<g>
		<path class="st0" d="M-900.2,536.2c-0.2-0.2-0.5-0.4-0.8-0.4h-3.8c-0.9-2.5-2.2-4.9-3.5-5.8c-4.8-3.2-17.5-3.2-22.4,0
			c-1.4,0.9-2.6,3.3-3.5,5.8h-3.8c-0.3,0-0.6,0.1-0.8,0.4c-0.2,0.2-0.3,0.5-0.2,0.8l0.6,2.7c0.1,0.5,0.5,0.8,1,0.8h1.1
			c-1.1,1.3-1.6,2.8-1.6,4.4c0,2,0.7,3.7,2.1,5c0,0,0,0,0,0v3.8c0,0.8,0.7,1.5,1.5,1.5h3.5c0.8,0,1.5-0.7,1.5-1.5v-1.5h19.6v1.5
			c0,0.8,0.7,1.5,1.5,1.5h3.5c0.8,0,1.5-0.7,1.5-1.5v-3.7c1.4-1.3,2.1-3.1,2.1-4.9c0-1.6-0.5-3.3-1.7-4.6h1.2c0.5,0,0.9-0.3,1-0.8
			l0.6-2.7C-899.9,536.7-900,536.4-900.2,536.2z M-929,532.5c3.8-2.5,15.2-2.5,19.1,0c0.7,0.5,1.7,2.5,2.6,4.9h-24.2
			C-930.7,535-929.7,533-929,532.5z M-933.5,545.4c0-1.6,1.3-3,3-3c1.6,0,3,1.3,3,3s-1.3,3-3,3C-932.2,548.3-933.5,547-933.5,545.4z
			 M-908.4,548.3c-1.6,0-3-1.3-3-3s1.3-3,3-3c1.6,0,3,1.3,3,3S-906.7,548.3-908.4,548.3z"/>
	</g>
</g>
</svg>
