<?xml version="1.0" encoding="utf-8"?>
<!-- Generator: Adobe Illustrator 19.0.0, SVG Export Plug-In . SVG Version: 6.00 Build 0)  -->
<svg version="1.1" id="Calque_1" xmlns="http://www.w3.org/2000/svg" xmlns:xlink="http://www.w3.org/1999/xlink" x="0px" y="0px"
	 viewBox="-921 498 85 85" style="enable-background:new -921 498 85 85;" xml:space="preserve">
<style type="text/css">
	.st0{fill:none;stroke:#FFFFFF;stroke-width:9;stroke-linecap:round;}
</style>
<title>logo-white</title>
<desc>Created with Sketch.</desc>
<g id="Page-1">
	<g id="A4" transform="translate(-321.000000, -266.000000)">
		<g id="logos" transform="translate(0.000000, 233.000000)">
			<g id="logo-white" transform="translate(326.000000, 37.000000)">
				<path id="Oval-18" class="st0" d="M-855.4,509.7c-14.9-14.8-39.1-14.8-54,0s-14.9,38.8,0,53.5s39.1,14.8,54,0l0,0"/>
				<path id="Oval-18_1_" class="st0" d="M-865.6,518.4c-10-9.3-25.6-8.7-35,1.3c-9.3,10-8.8,25.6,1.2,34.9s25.6,8.7,35-1.3"/>
				<path id="Oval-18_2_" class="st0" d="M-874,528.5c-4.6-4.6-12.1-4.6-16.7,0c-4.6,4.5-4.6,11.9,0,16.5s12.1,4.6,16.7,0l0,0"/>
			</g>
		</g>
	</g>
</g>
</svg>
