<?xml version="1.0" encoding="utf-8"?>
<!-- Generator: Adobe Illustrator 19.0.0, SVG Export Plug-In . SVG Version: 6.00 Build 0)  -->
<svg version="1.1" id="Calque_1" xmlns="http://www.w3.org/2000/svg" xmlns:xlink="http://www.w3.org/1999/xlink" x="0px" y="0px"
	 viewBox="-894.5 498.6 85.4 85.4" style="enable-background:new -894.5 498.6 85.4 85.4;" xml:space="preserve">
<style type="text/css">
	.st0{fill:none;stroke:#2BC070;stroke-width:9;stroke-linecap:round;}
</style>
<title>logo-icon</title>
<desc>Created with Sketch.</desc>
<g id="Page-1">
	<g id="A4" transform="translate(-190.000000, -254.000000)">
		<g id="logos" transform="translate(0.000000, 233.000000)">
			<g id="logo-icon" transform="translate(190.000000, 21.000000)">
				<path id="Oval-18_1_" class="st0" d="M-824.4,514.3c-14.9-14.8-39.1-14.8-54,0c-14.9,14.8-14.9,38.8,0,53.5
					c14.9,14.8,39.1,14.8,54,0l0,0"/>
				<path id="Oval-18_2_" class="st0" d="M-834.6,523c-10-9.3-25.6-8.7-35,1.3c-9.3,10-8.8,25.6,1.2,34.9c10,9.3,25.6,8.7,35-1.3"/>
				<path id="Oval-18_3_" class="st0" d="M-843,533.1c-4.6-4.6-12.1-4.6-16.7,0c-4.6,4.5-4.6,11.9,0,16.5c4.6,4.6,12.1,4.6,16.7,0
					l0,0"/>
			</g>
		</g>
	</g>
</g>
</svg>
