<?xml version="1.0" encoding="utf-8"?>
<!-- Generator: Adobe Illustrator 19.0.0, SVG Export Plug-In . SVG Version: 6.00 Build 0)  -->
<svg version="1.1" id="Calque_1" xmlns="http://www.w3.org/2000/svg" xmlns:xlink="http://www.w3.org/1999/xlink" x="0px" y="0px"
	 viewBox="-151.1 34 375.2 135" style="enable-background:new -151.1 34 375.2 135;" xml:space="preserve">
<style type="text/css">
	.st0{fill:#2BC070;}
	.st1{fill:none;stroke:#68EA9C;stroke-width:7;stroke-linecap:round;}
	.st2{fill:none;stroke:#68EA9C;stroke-width:7;}
	.st3{fill:none;stroke:#FFFFFF;stroke-width:7;stroke-linecap:round;}
	.st4{fill:#FFFFFF;}
	.st5{fill:#22DDDD;}
	.st6{fill:#26A25F;stroke:#FFFFFF;stroke-width:5;stroke-miterlimit:10;}
</style>
<rect x="-160.1" y="32" class="st0" width="409.2" height="153.4"/>
<title>progress</title>
<g>
	<path id="Oval-25-2" class="st1" d="M10.2,147.5L10.2,147.5c25.4,14.7,57.9,6,72.5-19.4c0,0,0,0,0,0"/>
	<path id="Oval-25-3" class="st2" d="M36.7,154.6L36.7,154.6c29.3,0,53.1-23.8,53.1-53.1S66.1,48.4,36.7,48.4"/>
	<path id="Oval-25-4" class="st1" d="M36.7,154.6c29.3,0,53.1-23.8,53.1-53.1S66.1,48.4,36.7,48.4"/>
</g>
<path id="Oval-25-6" class="st3" d="M-27.5,101.5c0,35.3,28.7,64,64,64l0,0c35.3,0,64-28.7,64-64s-28.7-64-64-64"/>
<path id="Oval-25-7" class="st3" d="M-25.3,84.9c-9.1,34.1,11.1,69.2,45.2,78.4l0,0c34.1,9.1,69.2-11.1,78.4-45.3
	c9.1-34.1-11.1-69.2-45.3-78.4"/>
<g id="frame">
	<circle id="Oval-1" class="st4" cx="36.5" cy="101.5" r="46"/>
</g>
<g id="face-shape">
	<polygon id="Polygon-1" class="st5" points="36.5,66.5 70.4,91.1 57.5,131 15.5,131 2.5,91.1 	"/>
</g>
<g id="eyes">
	<path id="Rectangle-8" d="M28,93.5L28,93.5c0.8,0,1.5,1.6,1.5,3.5l0,0c0,1.9-0.7,3.5-1.5,3.5l0,0c-0.8,0-1.5-1.6-1.5-3.5l0,0
		C26.5,95,27.2,93.5,28,93.5z"/>
	<path id="Rectangle-8-Copy" d="M45,93.5L45,93.5c0.8,0,1.5,1.6,1.5,3.5l0,0c0,1.9-0.7,3.5-1.5,3.5l0,0c-0.8,0-1.5-1.6-1.5-3.5l0,0
		C43.5,95,44.2,93.5,45,93.5z"/>
</g>
<g id="nose">
	<polygon points="38.5,97.5 38.5,104.5 32.5,101.5 	"/>
</g>
<g id="mouth">
	<path id="Oval-12" d="M38.1,122.5c5.9,0,10.6-4.8,10.6-10.6c0-5.9-21.2-5.9-21.2,0C27.5,117.7,32.3,122.5,38.1,122.5L38.1,122.5z"
		/>
	<path id="Oval-12-2" class="st4" d="M48.7,111.9c0-5.9-21.2-5.9-21.2,0C27.5,113.5,48.7,113.5,48.7,111.9z"/>
</g>
<g>
	<path class="st4" d="M-149.9,78.8h6.5v2h-4.2v2.1h3.6v2h-3.6v2.4h4.3v2h-6.7V78.8z"/>
	<path class="st4" d="M-142.5,78.8h2.5l1.3,4.9c0.3,1.1,0.5,2.2,0.8,3.3h0.1c0.3-1.2,0.5-2.2,0.8-3.3l1.2-4.9h2.4l-3.2,10.4h-2.8
		L-142.5,78.8z"/>
	<path class="st4" d="M-132.2,78.8h6.5v2h-4.2v2.1h3.6v2h-3.6v2.4h4.3v2h-6.7V78.8z"/>
	<path class="st4" d="M-117.9,89.3l-2-3.8h-1.3v3.8h-2.4V78.8h3.8c2.2,0,4,0.8,4,3.2c0,1.5-0.8,2.5-1.9,3l2.4,4.2H-117.9z
		 M-121.1,83.6h1.2c1.2,0,1.9-0.5,1.9-1.6s-0.7-1.4-1.9-1.4h-1.2V83.6z"/>
	<path class="st4" d="M-112.2,85.6l-3.1-6.7h2.5l0.9,2.4c0.3,0.8,0.5,1.5,0.8,2.3h0.1c0.3-0.8,0.6-1.5,0.9-2.3l0.9-2.4h2.5l-3.2,6.7
		v3.7h-2.4V85.6z"/>
	<path class="st4" d="M-103.8,80.8h-2.9v-2h8.1v2h-2.9v8.5h-2.4V80.8z"/>
	<path class="st4" d="M-97,78.8h2.4v4h3.6v-4h2.4v10.4H-91v-4.4h-3.6v4.4H-97V78.8z"/>
	<path class="st4" d="M-86.2,78.8h2.4v10.4h-2.4V78.8z"/>
	<path class="st4" d="M-81.4,78.8h2.4l2.7,5.2l1,2.3h0.1c-0.1-1.1-0.3-2.6-0.3-3.8v-3.7h2.2v10.4h-2.4l-2.7-5.2l-1-2.3h-0.1
		c0.1,1.2,0.3,2.5,0.3,3.8v3.7h-2.3V78.8z"/>
	<path class="st4" d="M-66.2,78.7c1.5,0,2.5,0.7,3.2,1.4l-1.3,1.5c-0.5-0.5-1-0.8-1.9-0.8c-1.6,0-2.8,1.3-2.8,3.4
		c0,2.1,1,3.4,2.9,3.4c0.4,0,0.8-0.1,1.1-0.3v-1.8h-1.7v-1.9h3.8v4.8c-0.8,0.7-2,1.3-3.5,1.3c-2.8,0-5.1-1.8-5.1-5.3
		C-71.3,80.7-69,78.7-66.2,78.7z"/>
	<path class="st4" d="M-149.9,96.8h2.4v10.4h-2.4V96.8z"/>
	<path class="st4" d="M-144.4,104.4c0.7,0.6,1.7,1.1,2.6,1.1c1,0,1.5-0.4,1.5-1c0-0.7-0.6-0.9-1.5-1.2l-1.3-0.6
		c-1.1-0.4-2.1-1.3-2.1-2.8c0-1.7,1.6-3.1,3.7-3.1c1.2,0,2.5,0.5,3.4,1.4l-1.2,1.5c-0.7-0.5-1.3-0.8-2.2-0.8c-0.8,0-1.3,0.4-1.3,0.9
		c0,0.6,0.7,0.9,1.6,1.2l1.3,0.5c1.3,0.5,2.1,1.4,2.1,2.8c0,1.7-1.4,3.2-3.9,3.2c-1.4,0-2.8-0.5-3.9-1.5L-144.4,104.4z"/>
	<path class="st4" d="M-128.2,96.7c1.5,0,2.5,0.7,3.2,1.4l-1.3,1.5c-0.5-0.5-1-0.8-1.9-0.8c-1.6,0-2.8,1.3-2.8,3.4
		c0,2.1,1,3.4,2.9,3.4c0.4,0,0.8-0.1,1.1-0.3v-1.8h-1.7v-1.9h3.8v4.8c-0.8,0.7-2,1.3-3.5,1.3c-2.8,0-5.1-1.8-5.1-5.3
		C-133.4,98.7-131.1,96.7-128.2,96.7z"/>
	<path class="st4" d="M-123.2,102c0-3.4,1.9-5.4,4.7-5.4c2.8,0,4.7,2,4.7,5.4c0,3.4-1.9,5.5-4.7,5.5
		C-121.3,107.5-123.2,105.4-123.2,102z M-116.1,102c0-2.1-0.9-3.3-2.3-3.3c-1.4,0-2.3,1.2-2.3,3.3c0,2.1,0.9,3.4,2.3,3.4
		C-117,105.4-116.1,104.1-116.1,102z"/>
	<path class="st4" d="M-111.8,96.8h2.4v10.4h-2.4V96.8z"/>
	<path class="st4" d="M-107,96.8h2.4l2.7,5.2l1,2.3h0.1c-0.1-1.1-0.3-2.6-0.3-3.8v-3.7h2.2v10.4h-2.4l-2.7-5.2l-1-2.3h-0.1
		c0.1,1.2,0.3,2.5,0.3,3.8v3.7h-2.3V96.8z"/>
	<path class="st4" d="M-91.7,96.7c1.5,0,2.5,0.7,3.2,1.4l-1.3,1.5c-0.5-0.5-1-0.8-1.9-0.8c-1.6,0-2.8,1.3-2.8,3.4
		c0,2.1,1,3.4,2.9,3.4c0.4,0,0.8-0.1,1.1-0.3v-1.8h-1.7v-1.9h3.8v4.8c-0.8,0.7-2,1.3-3.5,1.3c-2.8,0-5.1-1.8-5.1-5.3
		C-96.8,98.7-94.5,96.7-91.7,96.7z"/>
	<path class="st4" d="M-83.9,96.8h2.4l0.7,4.9c0.1,1.1,0.3,2.2,0.4,3.3h0.1c0.2-1.1,0.4-2.2,0.6-3.3l1.1-4.9h2l1.1,4.9
		c0.2,1.1,0.4,2.2,0.6,3.3h0.1c0.1-1.1,0.3-2.2,0.4-3.3l0.7-4.9h2.3l-1.9,10.4h-3l-1-4.7c-0.2-0.8-0.3-1.6-0.4-2.4h-0.1
		c-0.1,0.8-0.3,1.6-0.4,2.4l-1,4.7h-2.9L-83.9,96.8z"/>
	<path class="st4" d="M-69.9,96.8h6.5v2h-4.2v2.1h3.6v2h-3.6v2.4h4.3v2h-6.7V96.8z"/>
	<path class="st4" d="M-61.1,96.8h2.4v8.5h4.1v2h-6.5V96.8z"/>
	<path class="st4" d="M-52.9,96.8h2.4v8.5h4.1v2h-6.5V96.8z"/>
	<path class="st4" d="M-149.9,114.8h6.6v2h-4.2v2.4h3.6v2h-3.6v4h-2.4V114.8z"/>
	<path class="st4" d="M-142.2,120c0-3.4,1.9-5.4,4.7-5.4c2.8,0,4.7,2,4.7,5.4c0,3.4-1.9,5.5-4.7,5.5
		C-140.2,125.5-142.2,123.4-142.2,120z M-135.1,120c0-2.1-0.9-3.3-2.3-3.3c-1.4,0-2.3,1.2-2.3,3.3c0,2.1,0.9,3.4,2.3,3.4
		C-136,123.4-135.1,122.1-135.1,120z"/>
	<path class="st4" d="M-125.1,125.3l-2-3.8h-1.3v3.8h-2.4v-10.4h3.8c2.2,0,4,0.8,4,3.2c0,1.5-0.8,2.5-1.9,3l2.4,4.2H-125.1z
		 M-128.4,119.6h1.2c1.2,0,1.9-0.5,1.9-1.6s-0.7-1.4-1.9-1.4h-1.2V119.6z"/>
	<path class="st4" d="M-115.8,121.6l-3.1-6.7h2.5l0.9,2.4c0.3,0.8,0.5,1.5,0.8,2.3h0.1c0.3-0.8,0.6-1.5,0.9-2.3l0.9-2.4h2.5
		l-3.2,6.7v3.7h-2.4V121.6z"/>
	<path class="st4" d="M-110,120c0-3.4,1.9-5.4,4.7-5.4c2.8,0,4.7,2,4.7,5.4c0,3.4-1.9,5.5-4.7,5.5C-108,125.5-110,123.4-110,120z
		 M-102.9,120c0-2.1-0.9-3.3-2.3-3.3c-1.4,0-2.3,1.2-2.3,3.3c0,2.1,0.9,3.4,2.3,3.4C-103.8,123.4-102.9,122.1-102.9,120z"/>
	<path class="st4" d="M-98.6,114.8h2.4v5.8c0,2,0.6,2.8,1.8,2.8c1.2,0,1.9-0.7,1.9-2.8v-5.8h2.3v5.6c0,3.5-1.4,5-4.1,5
		s-4.2-1.5-4.2-5V114.8z"/>
	<path class="st4" d="M-86.4,122.5c0.8,0,1.4,0.6,1.4,1.5c0,0.8-0.6,1.5-1.4,1.5s-1.4-0.6-1.4-1.5
		C-87.8,123.2-87.2,122.5-86.4,122.5z M-87.5,116.7l-0.1-2.1h2.4l-0.1,2.1l-0.3,4.9h-1.5L-87.5,116.7z"/>
</g>
<circle id="XMLID_25_" class="st6" cx="193.9" cy="99.5" r="26.7"/>
<g id="XMLID_12_">
	<path id="XMLID_11_" class="st4" d="M138.5,96h-13.2c-1.1,0-2-0.8-2-2s0.9-2,2-2h13.2c0.9,0,3.7,0,3.7-4c0-0.8-0.2-1.3-0.5-1.7
		c-0.4-0.4-0.8-0.4-1.1-0.4c-0.1,0-1.4,0.1-1.4,1.5c0,1.2-0.9,2.1-2,2.1c-1.1,0-2-0.9-2-2.1c0-3.2,2.3-5.6,5.3-5.6
		c1.5,0,2.8,0.6,3.8,1.7c0.8,0.8,1.7,1.9,1.7,4.4C146.1,92.9,143,96,138.5,96z"/>
	<path id="XMLID_10_" class="st4" d="M140.6,120.6c-3,0-5.3-2.4-5.3-5.6c0-1.2,0.9-2.1,2-2.1c1.1,0,2,0.9,2,2.1
		c0,1.3,1.1,1.4,1.3,1.4c0.2,0,0.7-0.1,1.1-0.5c0.4-0.4,0.6-1,0.6-1.8c0-1.2-0.4-4.1-3.7-4.1h-13.2c-1.1,0-2-0.8-2-2s0.9-2,2-2h13.2
		c4.6,0,7.6,3.2,7.6,8.2c0,2.5-0.9,3.9-1.7,4.8C143.4,120.1,142,120.6,140.6,120.6z"/>
	<path id="XMLID_9_" class="st4" d="M150.5,103h-24.1c-1.1,0-2-1.3-2-2.5c0-1.2,0.9-2.5,2-2.5h24.1c2.7,0,3.7-1.9,3.7-4
		c0-0.8-0.2-1.3-0.5-1.6c-0.4-0.4-0.8-0.3-1-0.3c-0.1,0-1.4,0.1-1.4,1.5c0,1.2-0.9,2.1-2,2.1c-1.1,0-2-0.9-2-2.1
		c0-3.2,2.3-5.6,5.3-5.6c1.5,0,2.8,0.6,3.8,1.7c0.8,0.8,1.7,2.4,1.7,4.8C158.1,99.4,155,103,150.5,103z"/>
</g>
<g>
	<path class="st4" d="M181,101.2h-3.3v-2.3h3.3v-3.4h2.3v3.4h3.3v2.3h-3.3v3.4H181V101.2z"/>
	<path class="st4" d="M189.9,103c0.5,0.5,1.3,1,2.2,1c1.6,0,2.8-1.1,2.9-4.4c-0.7,0.9-1.9,1.5-2.8,1.5c-2.4,0-4.2-1.4-4.2-4.3
		c0-2.9,2.1-4.7,4.7-4.7c2.7,0,5.3,2,5.3,7c0,5.2-2.7,7.6-5.7,7.6c-1.9,0-3.2-0.8-4.1-1.7L189.9,103z M194.9,97.4
		c-0.3-2.2-1.2-2.9-2.2-2.9c-0.9,0-1.8,0.7-1.8,2.3c0,1.5,0.8,2,1.9,2C193.5,98.8,194.3,98.4,194.9,97.4z"/>
	<path class="st4" d="M199.2,95.1c0-1.8,1-2.9,2.4-2.9c1.4,0,2.4,1.1,2.4,2.9c0,1.8-1,3-2.4,3C200.2,98.1,199.2,97,199.2,95.1z
		 M202.3,95.1c0-1.2-0.3-1.6-0.7-1.6c-0.4,0-0.7,0.3-0.7,1.6c0,1.2,0.3,1.6,0.7,1.6C202,96.7,202.3,96.4,202.3,95.1z M201.9,101.7
		l4.9-9.6h1.4l-4.9,9.6H201.9z M206.2,98.8c0-1.8,1-2.9,2.4-2.9s2.4,1.1,2.4,2.9s-1,3-2.4,3S206.2,100.6,206.2,98.8z M209.3,98.8
		c0-1.2-0.3-1.6-0.7-1.6c-0.4,0-0.7,0.3-0.7,1.6c0,1.2,0.3,1.6,0.7,1.6C208.9,100.4,209.3,100,209.3,98.8z"/>
</g>
</svg>
