<svg id="Calque_1" data-name="Calque 1" xmlns="http://www.w3.org/2000/svg" viewBox="0 0 92 92"><defs><style>.cls-1{fill:#fff;}.cls-2{fill:#53ffa2;}</style></defs><title>polygon-face-2</title><g id="Page-1"><g id="A4"><g id="polygon-face"><g id="frame"><circle id="Oval-1" class="cls-1" cx="46" cy="46" r="46"/></g><g id="face-shape"><polygon id="Polygon-1" class="cls-2" points="45.95 11 79.9 35.66 66.93 75.57 24.97 75.57 12 35.66 45.95 11"/></g><g id="eyes"><path id="Rectangle-8" d="M37.5,38h0c0.83,0,1.5,1.57,1.5,3.5h0c0,1.93-.67,3.5-1.5,3.5h0c-0.83,0-1.5-1.57-1.5-3.5h0C36,39.57,36.67,38,37.5,38Z" transform="translate(0 0)"/><path id="Rectangle-8-Copy" d="M54.5,38h0c0.83,0,1.5,1.57,1.5,3.5h0c0,1.93-.67,3.5-1.5,3.5h0c-0.83,0-1.5-1.57-1.5-3.5h0C53,39.57,53.67,38,54.5,38Z" transform="translate(0 0)"/></g><g id="nose"><polygon points="48 42 48 49 42 46 48 42"/></g><g id="mouth"><path id="Oval-12" d="M47.61,67A10.61,10.61,0,0,0,58.21,56.39c0-5.86-21.21-5.86-21.21,0A10.61,10.61,0,0,0,47.61,67Z" transform="translate(0 0)"/><path id="Oval-12-2" data-name="Oval-12" class="cls-1" d="M58.21,56.39c0-5.86-21.21-5.86-21.21,0C37,58,58.21,58,58.21,56.39Z" transform="translate(0 0)"/></g></g></g></g></svg>