<?xml version="1.0" encoding="utf-8"?>
<!-- Generator: Adobe Illustrator 19.0.0, SVG Export Plug-In . SVG Version: 6.00 Build 0)  -->
<svg version="1.1" id="Calque_1" xmlns="http://www.w3.org/2000/svg" xmlns:xlink="http://www.w3.org/1999/xlink" x="0px" y="0px"
	 viewBox="-31 34 135 135" style="enable-background:new -31 34 135 135;" xml:space="preserve">
<style type="text/css">
	.st0{fill:none;stroke:#68EA9C;stroke-width:7;stroke-linecap:round;}
	.st1{fill:none;stroke:#68EA9C;stroke-width:7;}
	.st2{fill:none;stroke:#FFFFFF;stroke-width:7;stroke-linecap:round;}
	.st3{fill:#FFFFFF;}
	.st4{fill:#22DDDD;}
</style>
<title>progress</title>
<g>
	<path id="Oval-25-2" class="st0" d="M10.2,147.5L10.2,147.5c25.4,14.7,57.9,6,72.5-19.4c0,0,0,0,0,0"/>
	<path id="Oval-25-3" class="st1" d="M36.7,154.6L36.7,154.6c29.3,0,53.1-23.8,53.1-53.1S66.1,48.4,36.7,48.4"/>
	<path id="Oval-25-4" class="st0" d="M36.7,154.6c29.3,0,53.1-23.8,53.1-53.1S66.1,48.4,36.7,48.4"/>
</g>
<path id="Oval-25-6" class="st2" d="M-27.5,101.5c0,35.3,28.7,64,64,64l0,0c35.3,0,64-28.7,64-64s-28.7-64-64-64"/>
<path id="Oval-25-7" class="st2" d="M-25.3,84.9c-9.1,34.1,11.1,69.2,45.2,78.4l0,0c34.1,9.1,69.2-11.1,78.4-45.3
	c9.1-34.1-11.1-69.2-45.3-78.4"/>
<g id="frame">
	<circle id="Oval-1" class="st3" cx="36.5" cy="101.5" r="46"/>
</g>
<g id="face-shape">
	<polygon id="Polygon-1" class="st4" points="36.5,66.5 70.4,91.1 57.4,131 15.5,131 2.5,91.1 	"/>
</g>
<g id="eyes">
	<path id="Rectangle-8" d="M28,93.5L28,93.5c0.8,0,1.5,1.6,1.5,3.5l0,0c0,1.9-0.7,3.5-1.5,3.5l0,0c-0.8,0-1.5-1.6-1.5-3.5l0,0
		C26.5,95,27.2,93.5,28,93.5z"/>
	<path id="Rectangle-8-Copy" d="M45,93.5L45,93.5c0.8,0,1.5,1.6,1.5,3.5l0,0c0,1.9-0.7,3.5-1.5,3.5l0,0c-0.8,0-1.5-1.6-1.5-3.5l0,0
		C43.5,95,44.2,93.5,45,93.5z"/>
</g>
<g id="nose">
	<polygon points="38.5,97.5 38.5,104.5 32.5,101.5 	"/>
</g>
<g id="mouth">
	<path id="Oval-12" d="M38.1,122.5c5.9,0,10.6-4.8,10.6-10.6c0-5.9-21.2-5.9-21.2,0C27.5,117.7,32.3,122.5,38.1,122.5L38.1,122.5z"
		/>
	<path id="Oval-12-2" class="st3" d="M48.7,111.9c0-5.9-21.2-5.9-21.2,0C27.5,113.5,48.7,113.5,48.7,111.9z"/>
</g>
</svg>
