<?xml version="1.0" encoding="utf-8"?>
<!-- Generator: Adobe Illustrator 19.0.0, SVG Export Plug-In . SVG Version: 6.00 Build 0)  -->
<svg version="1.1" id="Calque_1" xmlns="http://www.w3.org/2000/svg" xmlns:xlink="http://www.w3.org/1999/xlink" x="0px" y="0px"
	 viewBox="0 0 377.5 251.4" style="enable-background:new 0 0 377.5 251.4;" xml:space="preserve">
<style type="text/css">
	.st0{fill:#2BC070;}
	.st1{opacity:0.5;fill:#0E733D;enable-background:new    ;}
	.st2{fill:#26A25F;stroke:#FFFFFF;stroke-width:5;stroke-miterlimit:10;}
	.st3{opacity:0.5;}
	.st4{fill:#0E733D;enable-background:new    ;}
	.st5{fill:#FFFFFF;}
	.st6{fill:#22DDDD;}
	.st7{fill:none;stroke:#FFFFFF;stroke-width:4;stroke-linecap:round;stroke-linejoin:round;stroke-miterlimit:10;}
</style>
<path id="XMLID_13_" class="st0" d="M429.5,309H-59.1c-9.1,0-16.6-7.5-16.6-16.6V35.1c0-9.1,7.5-16.6,16.6-16.6c0,0,189,0,199.1,0
	s22.4-18,32.5-18c10.1,0,22,18,32.3,18s224.7,0,224.7,0c9.1,0,16.6,7.5,16.6,16.6v257.3C446.1,301.5,438.6,309,429.5,309z"/>
<ellipse id="XMLID_24_" class="st1" cx="317.8" cy="134.9" rx="39.5" ry="6.4"/>
<circle id="XMLID_25_" class="st2" cx="317.5" cy="99" r="35"/>
<g id="XMLID_21_" class="st3">
	<ellipse id="XMLID_5_" class="st4" cx="77" cy="137.9" rx="35.7" ry="5.8"/>
	<ellipse id="XMLID_22_" class="st4" cx="129.8" cy="137.9" rx="25.1" ry="4.1"/>
	<ellipse id="XMLID_23_" class="st4" cx="36.7" cy="137.9" rx="11.9" ry="1.9"/>
</g>
<g id="XMLID_139_">
	<path id="XMLID_140_" class="st5" d="M34.2,185.5H22.8v-5h17.7v3.6c-5.9,7.1-6.7,11.9-7.2,21.8h-5.9
		C27.9,197.5,29.4,192.2,34.2,185.5z"/>
	<path id="XMLID_142_" class="st5" d="M45.7,199.2c1.5,1.4,3.3,2.5,5.5,2.5c2.6,0,4.3-1.4,4.3-4c0-2.6-1.6-3.9-4-3.9
		c-1.5,0-2.2,0.3-3.8,1.3l-2.6-1.7l0.7-12.8h14.4v5h-9.3l-0.4,4.8c1-0.4,1.8-0.6,2.8-0.6c4.4,0,8.1,2.5,8.1,7.9
		c0,5.6-4.4,8.9-9.3,8.9c-4.2,0-7-1.6-9-3.6L45.7,199.2z"/>
	<path id="XMLID_144_" class="st5" d="M66.9,199.1c1.5,1.5,3.4,2.6,5.6,2.6c2.5,0,4.1-1.1,4.1-3c0-2.2-1.3-3.6-6.8-3.6v-4.2
		c4.6,0,6-1.4,6-3.4c0-1.8-1.1-2.8-3.1-2.8c-1.8,0-3.2,0.8-4.8,2.2l-3-3.6c2.3-2,4.9-3.2,8-3.2c5.2,0,8.8,2.5,8.8,7
		c0,2.6-1.5,4.5-4.2,5.6v0.2c2.9,0.8,5,2.9,5,6.2c0,4.7-4.3,7.4-9.4,7.4c-4.1,0-7-1.4-8.8-3.6L66.9,199.1z"/>
</g>
<g id="XMLID_26_">
	<path id="XMLID_27_" class="st5" d="M300.1,100.8h-4.2v-2.9h4.2v-4.4h3v4.4h4.2v2.9h-4.2v4.4h-3V100.8z"/>
	<path id="XMLID_29_" class="st5" d="M313.8,99.2V99c-1.8-1.3-3.2-3-3.2-5.4c0-3.7,3-6.1,7-6.1c4.1,0,6.8,2.5,6.8,6.2
		c0,2.3-1.6,4.2-3.1,5.3v0.1c2.1,1.2,4,2.9,4,6c0,3.6-3.1,6.3-7.8,6.3c-4.5,0-7.8-2.6-7.8-6.4C309.6,102.2,311.6,100.3,313.8,99.2z
		 M317.5,108.5c2.2,0,3.8-1.3,3.8-3.4c0-2.5-2.4-3.4-5.6-4.7c-1.5,1.1-2.5,2.5-2.5,4.3C313.3,106.9,315.2,108.5,317.5,108.5z
		 M320.9,94c0-2-1.3-3.5-3.4-3.5c-1.8,0-3.2,1.2-3.2,3.2c0,2.3,2.1,3.3,4.6,4.4C320.2,96.7,320.9,95.4,320.9,94z"/>
	<path id="XMLID_33_" class="st5" d="M327.1,91.2c0-2.4,1.3-3.7,3-3.7s3,1.4,3,3.7c0,2.4-1.3,3.8-3,3.8S327.1,93.6,327.1,91.2z
		 M331.1,91.2c0-1.6-0.4-2-0.9-2s-0.9,0.4-0.9,2c0,1.6,0.4,2.1,0.9,2.1S331.1,92.8,331.1,91.2z M330.6,99.7l6.3-12.2h1.7l-6.3,12.2
		H330.6z M336,96c0-2.4,1.3-3.7,3-3.7s3,1.4,3,3.7c0,2.4-1.3,3.8-3,3.8S336,98.3,336,96z M340,96c0-1.6-0.4-2-0.9-2
		c-0.5,0-0.9,0.4-0.9,2c0,1.6,0.4,2.1,0.9,2.1C339.5,98,340,97.6,340,96z"/>
</g>
<g id="XMLID_95_">
	<path id="XMLID_96_" class="st5" d="M23,214.3h1.8v7.8H23V214.3z"/>
	<path id="XMLID_98_" class="st5" d="M26.6,214.3h1.8l2,3.9l0.8,1.7h0c-0.1-0.8-0.2-1.9-0.2-2.9v-2.8h1.7v7.8h-1.8l-2-3.9l-0.8-1.7
		h0c0.1,0.9,0.2,1.9,0.2,2.8v2.8h-1.7V214.3z"/>
	<path id="XMLID_100_" class="st5" d="M38.4,219.3l-2.4-5h1.9l0.7,1.8c0.2,0.6,0.4,1.1,0.6,1.7h0c0.2-0.6,0.4-1.1,0.7-1.7l0.7-1.8
		h1.8l-2.4,5v2.8h-1.8V219.3z"/>
	<path id="XMLID_102_" class="st5" d="M42.7,218.2c0-2.6,1.5-4,3.6-4c2.1,0,3.5,1.5,3.5,4c0,2.6-1.4,4.1-3.5,4.1
		C44.2,222.3,42.7,220.7,42.7,218.2z M48,218.2c0-1.6-0.7-2.5-1.7-2.5c-1.1,0-1.7,0.9-1.7,2.5c0,1.6,0.7,2.6,1.7,2.6
		C47.3,220.8,48,219.8,48,218.2z"/>
	<path id="XMLID_105_" class="st5" d="M51.3,214.3H53v4.4c0,1.5,0.5,2.1,1.4,2.1s1.4-0.5,1.4-2.1v-4.4h1.7v4.2
		c0,2.6-1.1,3.8-3.1,3.8s-3.1-1.1-3.1-3.8V214.3z"/>
	<path id="XMLID_107_" class="st5" d="M63.5,222.1l-1.5-2.8h-1v2.8h-1.8v-7.8h2.8c1.7,0,3,0.6,3,2.4c0,1.2-0.6,1.9-1.4,2.3l1.8,3.1
		H63.5z M61,217.9h0.9c0.9,0,1.4-0.4,1.4-1.2s-0.5-1-1.4-1H61V217.9z"/>
	<path id="XMLID_110_" class="st5" d="M72.5,214.2c1,0,1.8,0.5,2.3,1l-1,1.1c-0.4-0.4-0.8-0.6-1.3-0.6c-1.1,0-1.9,0.9-1.9,2.5
		c0,1.6,0.8,2.5,1.9,2.5c0.6,0,1.1-0.3,1.5-0.7l1,1.1c-0.6,0.8-1.5,1.2-2.5,1.2c-2,0-3.7-1.4-3.7-4
		C68.8,215.7,70.5,214.2,72.5,214.2z"/>
	<path id="XMLID_112_" class="st5" d="M79.8,220.3h-2.4l-0.5,1.9h-1.8l2.5-7.8h2.1l2.5,7.8h-1.9L79.8,220.3z M79.4,218.9l-0.2-0.7
		c-0.2-0.8-0.4-1.7-0.6-2.5h0c-0.2,0.8-0.4,1.7-0.6,2.5l-0.2,0.7H79.4z"/>
	<path id="XMLID_115_" class="st5" d="M87.2,222.1l-1.5-2.8h-1v2.8h-1.8v-7.8h2.8c1.7,0,3,0.6,3,2.4c0,1.2-0.6,1.9-1.4,2.3l1.8,3.1
		H87.2z M84.7,217.9h0.9c0.9,0,1.4-0.4,1.4-1.2s-0.5-1-1.4-1h-0.9V217.9z"/>
	<path id="XMLID_118_" class="st5" d="M90.3,214.3h4.9v1.5h-3.1v1.6h2.7v1.5h-2.7v1.8h3.2v1.5h-5V214.3z"/>
	<path id="XMLID_120_" class="st5" d="M102.7,214.2c1,0,1.8,0.5,2.3,1l-1,1.1c-0.4-0.4-0.8-0.6-1.3-0.6c-1.1,0-1.9,0.9-1.9,2.5
		c0,1.6,0.8,2.5,1.9,2.5c0.6,0,1.1-0.3,1.5-0.7l1,1.1c-0.6,0.8-1.5,1.2-2.5,1.2c-2,0-3.7-1.4-3.7-4
		C99,215.7,100.7,214.2,102.7,214.2z"/>
	<path id="XMLID_122_" class="st5" d="M105.5,218.2c0-2.6,1.5-4,3.5-4c2.1,0,3.5,1.5,3.5,4c0,2.6-1.4,4.1-3.5,4.1
		C107,222.3,105.5,220.7,105.5,218.2z M110.8,218.2c0-1.6-0.7-2.5-1.7-2.5c-1.1,0-1.7,0.9-1.7,2.5c0,1.6,0.7,2.6,1.7,2.6
		C110.1,220.8,110.8,219.8,110.8,218.2z"/>
	<path id="XMLID_125_" class="st5" d="M114.1,214.3h1.9l1.3,3.5l0.5,1.4h0l0.5-1.4l1.3-3.5h1.9v7.8h-1.7v-2.9c0-0.8,0.1-1.9,0.2-2.7
		h0l-0.6,1.8l-1.2,3h-0.7l-1.2-3l-0.6-1.8h0c0.1,0.8,0.2,1.9,0.2,2.7v2.9h-1.6V214.3z"/>
	<path id="XMLID_127_" class="st5" d="M123.2,214.3h1.9l1.3,3.5l0.5,1.4h0l0.5-1.4l1.3-3.5h1.9v7.8h-1.7v-2.9c0-0.8,0.1-1.9,0.2-2.7
		h0l-0.6,1.8l-1.2,3h-0.7l-1.2-3l-0.6-1.8h0c0.1,0.8,0.2,1.9,0.2,2.7v2.9h-1.6V214.3z"/>
	<path id="XMLID_129_" class="st5" d="M132.3,214.3h1.8v4.4c0,1.5,0.5,2.1,1.4,2.1c0.9,0,1.4-0.5,1.4-2.1v-4.4h1.7v4.2
		c0,2.6-1.1,3.8-3.1,3.8c-2,0-3.1-1.1-3.1-3.8V214.3z"/>
	<path id="XMLID_131_" class="st5" d="M140.3,214.3h1.8l2,3.9l0.8,1.7h0c-0.1-0.8-0.2-1.9-0.2-2.9v-2.8h1.7v7.8h-1.8l-2-3.9
		l-0.8-1.7h0c0.1,0.9,0.2,1.9,0.2,2.8v2.8h-1.7V214.3z"/>
	<path id="XMLID_133_" class="st5" d="M148.3,214.3h1.8v7.8h-1.8V214.3z"/>
	<path id="XMLID_135_" class="st5" d="M153.4,215.8h-2.2v-1.5h6.1v1.5h-2.1v6.3h-1.8V215.8z"/>
	<path id="XMLID_137_" class="st5" d="M159.7,219.3l-2.4-5h1.9l0.7,1.8c0.2,0.6,0.4,1.1,0.6,1.7h0c0.2-0.6,0.4-1.1,0.7-1.7l0.7-1.8
		h1.8l-2.4,5v2.8h-1.8V219.3z"/>
</g>
<g id="XMLID_75_">
	<path id="XMLID_80_" class="st5" d="M24.3,171l-2.4-5h1.9l0.7,1.8c0.2,0.6,0.4,1.1,0.6,1.7h0c0.2-0.6,0.4-1.1,0.7-1.7l0.7-1.8h1.8
		l-2.4,5v2.8h-1.8V171z"/>
	<path id="XMLID_82_" class="st5" d="M28.7,169.9c0-2.6,1.5-4,3.6-4c2.1,0,3.5,1.5,3.5,4c0,2.6-1.4,4.1-3.5,4.1
		C30.1,174,28.7,172.4,28.7,169.9z M34,169.9c0-1.6-0.7-2.5-1.7-2.5c-1.1,0-1.7,0.9-1.7,2.5c0,1.6,0.7,2.6,1.7,2.6
		C33.3,172.4,34,171.4,34,169.9z"/>
	<path id="XMLID_85_" class="st5" d="M37.2,166H39v4.4c0,1.5,0.5,2.1,1.4,2.1s1.4-0.5,1.4-2.1V166h1.7v4.2c0,2.6-1.1,3.8-3.1,3.8
		s-3.1-1.1-3.1-3.8V166z"/>
	<path id="XMLID_87_" class="st5" d="M51.4,172H49l-0.5,1.9h-1.8l2.5-7.8h2.1l2.5,7.8h-1.9L51.4,172z M51,170.6l-0.2-0.7
		c-0.2-0.8-0.4-1.7-0.6-2.5h0c-0.2,0.8-0.4,1.7-0.6,2.5l-0.2,0.7H51z"/>
	<path id="XMLID_90_" class="st5" d="M58.8,173.8l-1.5-2.8h-1v2.8h-1.8V166h2.8c1.7,0,3,0.6,3,2.4c0,1.2-0.6,1.9-1.4,2.3l1.8,3.1
		H58.8z M56.3,169.6h0.9c0.9,0,1.4-0.4,1.4-1.2s-0.5-1-1.4-1h-0.9V169.6z"/>
	<path id="XMLID_93_" class="st5" d="M61.9,166h4.9v1.5h-3.1v1.6h2.7v1.5h-2.7v1.8h3.2v1.5h-5V166z"/>
</g>
<rect id="XMLID_74_" x="393.1" y="179.7" style="fill:none;" width="148.3" height="33.7"/>
<text id="XMLID_73_" transform="matrix(1 0 0 1 393.0611 191.6515)"><tspan x="0" y="0" class="st5" style="font-family:'SourceSansPro-Black'; font-size:17px;">#1336</tspan><tspan x="45.9" y="0" class="st5" style="font-family:'SourceSansPro-Bold'; font-size:17px;"> IN FRANCE</tspan><tspan x="0" y="14.4" class="st5" style="font-family:'SourceSansPro-Regular'; font-size:12px;">View France’s ranking</tspan></text>
<g id="XMLID_76_">
	<g id="XMLID_77_">
		<path id="XMLID_70_" class="st5" d="M401.9,236.2c-0.3,0-0.7-0.1-1-0.4c-0.6-0.5-0.6-1.4,0-2l3.2-3.3l-3.1-3.3
			c-0.5-0.6-0.5-1.5,0-2c0.6-0.5,1.5-0.5,2,0l4.1,4.3c0.5,0.5,0.5,1.4,0,2l-4.1,4.3C402.6,236.1,402.3,236.2,401.9,236.2z"/>
	</g>
</g>
<g id="XMLID_68_">
	<path id="XMLID_69_" class="st5" d="M241.4,163h-2.2v-1.5h6.1v1.5h-2.1v6.3h-1.8V163z"/>
	<path id="XMLID_72_" class="st5" d="M245.8,165.4c0-2.6,1.5-4,3.5-4c2.1,0,3.5,1.5,3.5,4c0,2.6-1.4,4.1-3.5,4.1
		C247.3,169.4,245.8,167.9,245.8,165.4z M251.1,165.4c0-1.6-0.7-2.5-1.7-2.5c-1.1,0-1.7,0.9-1.7,2.5c0,1.6,0.7,2.6,1.7,2.6
		C250.5,167.9,251.1,166.9,251.1,165.4z"/>
	<path id="XMLID_146_" class="st5" d="M257.9,161.3c1.1,0,1.9,0.5,2.4,1l-1,1.1c-0.4-0.4-0.8-0.6-1.4-0.6c-1.2,0-2.1,0.9-2.1,2.5
		c0,1.6,0.7,2.5,2.2,2.5c0.3,0,0.6-0.1,0.8-0.2v-1.3h-1.3v-1.4h2.9v3.6c-0.6,0.5-1.5,0.9-2.6,0.9c-2.1,0-3.8-1.4-3.8-4
		C254,162.8,255.8,161.3,257.9,161.3z"/>
	<path id="XMLID_148_" class="st5" d="M262,161.5h4.9v1.5h-3.1v1.6h2.7v1.5h-2.7v1.8h3.2v1.5h-5V161.5z"/>
	<path id="XMLID_150_" class="st5" d="M270.1,163H268v-1.5h6.1v1.5h-2.1v6.3h-1.8V163z"/>
	<path id="XMLID_152_" class="st5" d="M275.3,161.5h1.8v3h2.7v-3h1.8v7.8h-1.8V166H277v3.3h-1.8V161.5z"/>
	<path id="XMLID_154_" class="st5" d="M283.3,161.5h4.9v1.5h-3.1v1.6h2.7v1.5h-2.7v1.8h3.2v1.5h-5V161.5z"/>
	<path id="XMLID_156_" class="st5" d="M294.1,169.3l-1.5-2.8h-1v2.8h-1.8v-7.8h2.8c1.7,0,3,0.6,3,2.4c0,1.2-0.6,1.9-1.4,2.3l1.8,3.1
		H294.1z M291.7,165.1h0.9c0.9,0,1.4-0.4,1.4-1.2s-0.5-1-1.4-1h-0.9V165.1z"/>
	<path id="XMLID_159_" class="st5" d="M296.9,170.7c0.9-0.3,1.4-0.9,1.4-1.5c0,0-0.1,0-0.1,0c-0.6,0-1.1-0.4-1.1-1
		c0-0.6,0.5-1,1.1-1c0.8,0,1.2,0.6,1.2,1.7c0,1.3-0.8,2.3-2.2,2.7L296.9,170.7z"/>
	<path id="XMLID_161_" class="st5" d="M304.7,166.5l-2.4-5h1.9l0.7,1.8c0.2,0.6,0.4,1.1,0.6,1.7h0c0.2-0.6,0.4-1.1,0.7-1.7l0.7-1.8
		h1.8l-2.4,5v2.8h-1.8V166.5z"/>
	<path id="XMLID_163_" class="st5" d="M309.1,165.4c0-2.6,1.5-4,3.5-4c2.1,0,3.5,1.5,3.5,4c0,2.6-1.4,4.1-3.5,4.1
		C310.5,169.4,309.1,167.9,309.1,165.4z M314.3,165.4c0-1.6-0.7-2.5-1.7-2.5c-1.1,0-1.7,0.9-1.7,2.5c0,1.6,0.7,2.6,1.7,2.6
		C313.7,167.9,314.3,166.9,314.3,165.4z"/>
	<path id="XMLID_166_" class="st5" d="M317.6,161.5h1.8v4.4c0,1.5,0.5,2.1,1.4,2.1c0.9,0,1.4-0.5,1.4-2.1v-4.4h1.7v4.2
		c0,2.6-1.1,3.8-3.1,3.8c-2,0-3.1-1.1-3.1-3.8V161.5z"/>
	<path id="XMLID_168_" class="st5" d="M328.1,161.5h1.8v3h2.7v-3h1.8v7.8h-1.8V166h-2.7v3.3h-1.8V161.5z"/>
	<path id="XMLID_170_" class="st5" d="M339.8,167.4h-2.4l-0.5,1.9h-1.8l2.5-7.8h2.1l2.5,7.8h-1.9L339.8,167.4z M339.5,166.1
		l-0.2-0.7c-0.2-0.8-0.4-1.7-0.6-2.5h0c-0.2,0.8-0.4,1.7-0.6,2.5l-0.2,0.7H339.5z"/>
	<path id="XMLID_173_" class="st5" d="M341.8,161.5h1.9l0.9,3.6c0.2,0.9,0.4,1.6,0.6,2.5h0c0.2-0.9,0.4-1.7,0.6-2.5l0.9-3.6h1.8
		l-2.4,7.8h-2.1L341.8,161.5z"/>
	<path id="XMLID_175_" class="st5" d="M349.4,161.5h4.9v1.5h-3.1v1.6h2.7v1.5h-2.7v1.8h3.2v1.5h-5V161.5z"/>
	<path id="XMLID_177_" class="st5" d="M265.4,176h3.3v12.3h-3.3V176z"/>
	<path id="XMLID_179_" class="st5" d="M271.4,176h3.4l1.9,5.1l0.7,2h0.1l0.7-2l1.9-5.1h3.4v12.3h-3v-3.6c0-1.3,0.3-3.2,0.4-4.4h-0.1
		l-1,2.9l-1.7,4.2h-1.2l-1.7-4.2l-1-2.9H274c0.2,1.2,0.4,3.2,0.4,4.4v3.6h-3V176z"/>
	<path id="XMLID_181_" class="st5" d="M286.1,176h4.8c2.7,0,4.9,1,4.9,4.1c0,3-2.4,4.3-4.9,4.3h-1.5v3.9h-3.3V176z M290.8,181.8
		c1.3,0,1.9-0.6,1.9-1.7c0-1.1-0.7-1.5-1.9-1.5h-1.4v3.3H290.8z"/>
	<path id="XMLID_184_" class="st5" d="M304.5,188.3l-2.1-4.1h-1.3v4.1h-3.3V176h4.7c2.7,0,4.9,0.9,4.9,4c0,1.8-0.8,2.9-2,3.6
		l2.7,4.8H304.5z M301.1,181.6h1.2c1.3,0,2-0.6,2-1.6c0-1.1-0.7-1.4-2-1.4h-1.2V181.6z"/>
	<path id="XMLID_187_" class="st5" d="M309.3,182.1c0-4.1,2.3-6.3,5.7-6.3s5.7,2.3,5.7,6.3c0,4.1-2.3,6.5-5.7,6.5
		S309.3,186.1,309.3,182.1z M317.5,182.1c0-2.2-0.9-3.5-2.4-3.5s-2.4,1.3-2.4,3.5s0.9,3.6,2.4,3.6S317.5,184.3,317.5,182.1z"/>
	<path id="XMLID_190_" class="st5" d="M321.3,176h3.5l1.3,5.4c0.3,1.3,0.6,2.6,0.9,3.9h0.1c0.3-1.3,0.6-2.6,0.9-3.9l1.3-5.4h3.3
		l-3.6,12.3h-4L321.3,176z"/>
	<path id="XMLID_192_" class="st5" d="M333.7,176h8v2.7h-4.7v1.9h4v2.7h-4v2.2h4.9v2.7h-8.2V176z"/>
	<path id="XMLID_194_" class="st5" d="M344.2,176h3.6c3.8,0,6.3,1.7,6.3,6.1c0,4.4-2.6,6.2-6.2,6.2h-3.8V176z M347.7,185.7
		c1.8,0,3.2-0.7,3.2-3.6s-1.4-3.5-3.2-3.5h-0.2v7.1H347.7z"/>
	<path id="XMLID_197_" class="st5" d="M255.7,204.7h-3.5l-0.6,2.6h-3.3L252,195h4l3.8,12.3h-3.5L255.7,204.7z M255.1,202.2l-0.2-0.9
		c-0.3-1.2-0.6-2.7-0.9-3.9h-0.1c-0.3,1.3-0.6,2.7-0.9,3.9l-0.2,0.9H255.1z"/>
	<path id="XMLID_200_" class="st5" d="M260.9,195h3.3v12.3h-3.3V195z"/>
	<path id="XMLID_202_" class="st5" d="M273.6,207.3l-2.1-4.1h-1.3v4.1h-3.3V195h4.7c2.7,0,4.9,0.9,4.9,4c0,1.8-0.8,2.9-2,3.6
		l2.7,4.8H273.6z M270.2,200.6h1.2c1.3,0,2-0.6,2-1.6c0-1.1-0.7-1.4-2-1.4h-1.2V200.6z"/>
	<path id="XMLID_205_" class="st5" d="M294.5,210.3c-0.5,0.3-1.3,0.5-2.4,0.5c-2.8,0-4.7-1.4-5.7-3.4c-2.6-0.6-4.3-2.8-4.3-6.3
		c0-4.1,2.3-6.3,5.7-6.3c3.4,0,5.7,2.3,5.7,6.3c0,3.2-1.5,5.4-3.8,6.2c0.6,0.8,1.7,1,2.6,1c0.5,0,1-0.1,1.4-0.2L294.5,210.3z
		 M285.6,201.1c0,2.2,0.9,3.6,2.4,3.6c1.5,0,2.4-1.4,2.4-3.6c0-2.2-0.9-3.5-2.4-3.5C286.5,197.5,285.6,198.8,285.6,201.1z"/>
	<path id="XMLID_208_" class="st5" d="M295.9,195h3.3v6.8c0,2.2,0.6,3,1.9,3s1.9-0.8,1.9-3V195h3.2v6.4c0,4.2-1.6,6.2-5.1,6.2
		c-3.5,0-5.1-2-5.1-6.2V195z"/>
	<path id="XMLID_210_" class="st5" d="M314.4,204.7H311l-0.6,2.6H307l3.8-12.3h4l3.8,12.3h-3.5L314.4,204.7z M313.9,202.2l-0.2-0.9
		c-0.3-1.2-0.6-2.7-0.9-3.9h-0.1c-0.3,1.3-0.6,2.7-0.9,3.9l-0.2,0.9H313.9z"/>
	<path id="XMLID_213_" class="st5" d="M319.7,195h3.3v9.6h4.7v2.7h-7.9V195z"/>
	<path id="XMLID_215_" class="st5" d="M329.8,195h3.3v12.3h-3.3V195z"/>
	<path id="XMLID_219_" class="st5" d="M338.1,197.7h-3.3V195h9.8v2.7h-3.3v9.6h-3.3V197.7z"/>
	<path id="XMLID_221_" class="st5" d="M348.3,203l-3.7-8.1h3.5l0.9,2.6c0.3,0.9,0.6,1.8,0.9,2.8h0.1c0.3-1,0.6-1.8,1-2.8l0.9-2.6
		h3.4l-3.7,8.1v4.3h-3.3V203z"/>
	<path id="XMLID_223_" class="st5" d="M247.3,215.5h2.7c1.6,0,2.9,0.4,2.9,1.9c0,0.7-0.4,1.5-1.3,1.7v0c1.1,0.2,1.7,0.8,1.7,1.8
		c0,1.6-1.3,2.3-3,2.3h-2.9V215.5z M249.8,218.6c0.9,0,1.2-0.4,1.2-1s-0.4-0.8-1.2-0.8H249v1.8H249.8z M250,221.9
		c1,0,1.5-0.4,1.5-1.1c0-0.7-0.5-1-1.5-1h-1v2.1H250z"/>
	<path id="XMLID_229_" class="st5" d="M255.6,220.5l-2.4-5h1.9l0.7,1.8c0.2,0.6,0.4,1.1,0.6,1.7h0c0.2-0.6,0.4-1.1,0.7-1.7l0.7-1.8
		h1.8l-2.4,5v2.8h-1.8V220.5z"/>
	<path id="XMLID_233_" class="st5" d="M264,219.5L264,219.5c-0.6-0.5-1-1-1-1.8c0-1.3,1-2.1,2.4-2.1c1.4,0,2.3,0.8,2.3,2.1
		c0,0.7-0.5,1.3-1,1.7v0c0.7,0.4,1.3,1,1.3,2c0,1.2-1.1,2.1-2.7,2.1c-1.5,0-2.7-0.9-2.7-2.1C262.7,220.4,263.2,219.9,264,219.5z
		 M265.3,222.2c0.6,0,1-0.3,1-0.9c0-0.7-0.6-0.9-1.6-1.3c-0.3,0.3-0.6,0.7-0.6,1.2C264.2,221.8,264.7,222.2,265.3,222.2z
		 M266.3,217.7c0-0.6-0.3-1-0.9-1c-0.5,0-0.9,0.3-0.9,0.9c0,0.6,0.5,0.9,1.3,1.2C266.1,218.5,266.3,218.1,266.3,217.7z"/>
	<path id="XMLID_237_" class="st5" d="M268.8,217.8c0-1.6,0.8-2.5,1.9-2.5c1.1,0,2,0.9,2,2.5c0,1.6-0.8,2.5-2,2.5
		C269.6,220.3,268.8,219.4,268.8,217.8z M271.5,217.8c0-1.1-0.3-1.5-0.7-1.5s-0.7,0.4-0.7,1.5c0,1.1,0.3,1.5,0.7,1.5
		S271.5,218.9,271.5,217.8z M271,223.4l4.2-8.1h1l-4.2,8.1H271z M274.6,221c0-1.6,0.8-2.5,2-2.5c1.1,0,2,0.9,2,2.5
		c0,1.6-0.8,2.5-2,2.5C275.4,223.4,274.6,222.5,274.6,221z M277.2,221c0-1.1-0.3-1.5-0.7-1.5c-0.4,0-0.7,0.4-0.7,1.5
		c0,1.1,0.3,1.5,0.7,1.5C276.9,222.5,277.2,222.1,277.2,221z"/>
	<path id="XMLID_243_" class="st5" d="M282.2,215.5h1.8v7.8h-1.8V215.5z"/>
	<path id="XMLID_245_" class="st5" d="M285.8,215.5h1.8l2,3.9l0.8,1.7h0c-0.1-0.8-0.2-1.9-0.2-2.9v-2.8h1.7v7.8h-1.8l-2-3.9
		l-0.8-1.7h0c0.1,0.9,0.2,1.9,0.2,2.8v2.8h-1.7V215.5z"/>
	<path id="XMLID_247_" class="st5" d="M297.6,220.5l-2.4-5h1.9l0.7,1.8c0.2,0.6,0.4,1.1,0.6,1.7h0c0.2-0.6,0.4-1.1,0.7-1.7l0.7-1.8
		h1.8l-2.4,5v2.8h-1.8V220.5z"/>
	<path id="XMLID_249_" class="st5" d="M301.9,219.4c0-2.6,1.5-4,3.6-4c2.1,0,3.5,1.5,3.5,4c0,2.6-1.4,4.1-3.5,4.1
		C303.4,223.4,301.9,221.9,301.9,219.4z M307.2,219.4c0-1.6-0.7-2.5-1.7-2.5c-1.1,0-1.7,0.9-1.7,2.5c0,1.6,0.7,2.6,1.7,2.6
		C306.6,221.9,307.2,220.9,307.2,219.4z"/>
	<path id="XMLID_252_" class="st5" d="M310.5,215.5h1.8v4.4c0,1.5,0.5,2.1,1.4,2.1c0.9,0,1.4-0.5,1.4-2.1v-4.4h1.7v4.2
		c0,2.6-1.1,3.8-3.1,3.8c-2,0-3.1-1.1-3.1-3.8V215.5z"/>
	<path id="XMLID_254_" class="st5" d="M322.7,223.3l-1.5-2.8h-1v2.8h-1.8v-7.8h2.8c1.7,0,3,0.6,3,2.4c0,1.2-0.6,1.9-1.4,2.3l1.8,3.1
		H322.7z M320.2,219.1h0.9c0.9,0,1.4-0.4,1.4-1.2s-0.5-1-1.4-1h-0.9V219.1z"/>
	<path id="XMLID_257_" class="st5" d="M332,221.4h-2.4l-0.5,1.9h-1.8l2.5-7.8h2.1l2.5,7.8h-1.9L332,221.4z M331.7,220.1l-0.2-0.7
		c-0.2-0.8-0.4-1.7-0.6-2.5h0c-0.2,0.8-0.4,1.7-0.6,2.5l-0.2,0.7H331.7z"/>
	<path id="XMLID_260_" class="st5" d="M339.4,223.3l-1.5-2.8h-1v2.8h-1.8v-7.8h2.8c1.7,0,3,0.6,3,2.4c0,1.2-0.6,1.9-1.4,2.3l1.8,3.1
		H339.4z M337,219.1h0.9c0.9,0,1.4-0.4,1.4-1.2s-0.5-1-1.4-1H337V219.1z"/>
	<path id="XMLID_263_" class="st5" d="M342.6,215.5h4.9v1.5h-3.1v1.6h2.7v1.5h-2.7v1.8h3.2v1.5h-5V215.5z"/>
	<path id="XMLID_265_" class="st5" d="M352.8,221.4h-2.4l-0.5,1.9h-1.8l2.5-7.8h2.1l2.5,7.8h-1.9L352.8,221.4z M352.5,220.1
		l-0.2-0.7c-0.2-0.8-0.4-1.7-0.6-2.5h0c-0.2,0.8-0.4,1.7-0.6,2.5l-0.2,0.7H352.5z"/>
</g>
<g id="XMLID_2_">
	<g id="frame">
		<circle id="Oval-1" class="st5" cx="76.8" cy="106.2" r="30.9"/>
	</g>
	<g id="face-shape">
		<polygon id="Polygon-1" class="st6" points="76.8,82.6 99.6,99.2 90.9,126 62.7,126 54,99.2 		"/>
	</g>
	<g id="eyes">
		<path id="Rectangle-8" d="M71.1,100.8L71.1,100.8c0.6,0,1,1.1,1,2.4l0,0c0,1.3-0.5,2.4-1,2.4l0,0c-0.6,0-1-1.1-1-2.4l0,0
			C70.1,101.8,70.5,100.8,71.1,100.8z"/>
		<path id="Rectangle-8-Copy" d="M82.5,100.8L82.5,100.8c0.6,0,1,1.1,1,2.4l0,0c0,1.3-0.5,2.4-1,2.4l0,0c-0.6,0-1-1.1-1-2.4l0,0
			C81.5,101.8,82,100.8,82.5,100.8z"/>
	</g>
	<g id="nose">
		<polygon id="XMLID_55_" points="78.2,103.5 78.2,108.2 74.1,106.2 		"/>
	</g>
	<g id="mouth">
		<path id="Oval-12" d="M77.9,120.3c3.9,0,7.1-3.2,7.1-7.1c0-3.9-14.3-3.9-14.3,0C70.8,117.1,74,120.3,77.9,120.3L77.9,120.3z"/>
		<path id="Oval-12-2" class="st5" d="M85,113.1c0-3.9-14.3-3.9-14.3,0C70.8,114.2,85,114.2,85,113.1z"/>
	</g>
</g>
<g id="XMLID_231_">
	<g id="frame_3_">
		<circle id="Oval-1_3_" class="st5" cx="36.6" cy="119.5" r="7.2"/>
	</g>
	<g id="face-shape_3_">
		<polygon id="Polygon-1_3_" class="st6" points="37.4,114.1 42.1,118.8 39.1,124.6 32.6,123.6 31.6,117.1 		"/>
	</g>
	<g id="eyes_3_">
		<path id="Rectangle-8_3_" d="M35.5,118.1L35.5,118.1c0.1,0,0.2,0.3,0.1,0.6l0,0c0,0.3-0.2,0.5-0.3,0.5l0,0c-0.1,0-0.2-0.3-0.1-0.6
			l0,0C35.2,118.3,35.4,118.1,35.5,118.1z"/>
		<path id="Rectangle-8-Copy_3_" d="M38.1,118.5L38.1,118.5c0.1,0,0.2,0.3,0.1,0.6l0,0c0,0.3-0.2,0.5-0.3,0.5l0,0
			c-0.1,0-0.2-0.3-0.1-0.6l0,0C37.8,118.7,38,118.5,38.1,118.5z"/>
	</g>
	<g id="nose_3_">
		<polygon id="XMLID_232_" points="37,119 36.8,120 36,119.4 		"/>
	</g>
	<g id="mouth_3_">
		<path id="Oval-12_3_" d="M36.3,122.8c0.9,0.1,1.8-0.5,1.9-1.4c0.1-0.9-3.1-1.4-3.3-0.5C34.8,121.8,35.4,122.7,36.3,122.8
			L36.3,122.8z"/>
		<path id="Oval-12-2_3_" class="st5" d="M38.2,121.4c0.1-0.9-3.1-1.4-3.3-0.5C34.9,121.2,38.2,121.7,38.2,121.4z"/>
	</g>
</g>
<g id="XMLID_19_">
	<g id="frame_5_">
		<circle id="Oval-1_5_" class="st5" cx="87.5" cy="72.4" r="7.2"/>
	</g>
	<g id="face-shape_5_">
		<polygon id="Polygon-1_5_" class="st6" points="86.2,67.1 92.2,69.6 91.7,76.1 85.4,77.7 81.9,72.1 		"/>
	</g>
	<g id="eyes_5_">
		<path id="Rectangle-8_5_" d="M85.9,71.5L85.9,71.5c0.1,0,0.3,0.2,0.4,0.5l0,0c0.1,0.3,0,0.6-0.1,0.6l0,0c-0.1,0-0.3-0.2-0.4-0.5
			l0,0C85.7,71.8,85.8,71.5,85.9,71.5z"/>
		<path id="Rectangle-8-Copy_5_" d="M88.5,70.9L88.5,70.9c0.1,0,0.3,0.2,0.4,0.5l0,0c0.1,0.3,0,0.6-0.1,0.6l0,0
			c-0.1,0-0.3-0.2-0.4-0.5l0,0C88.3,71.2,88.3,70.9,88.5,70.9z"/>
	</g>
	<g id="nose_5_">
		<polygon id="XMLID_20_" points="87.6,71.7 87.9,72.8 86.9,72.5 		"/>
	</g>
	<g id="mouth_5_">
		<path id="Oval-12_5_" d="M88.5,75.5c0.9-0.2,1.4-1.1,1.2-2c-0.2-0.9-3.4-0.1-3.2,0.8C86.7,75.2,87.6,75.7,88.5,75.5L88.5,75.5z"/>
		<path id="Oval-12-2_5_" class="st5" d="M89.7,73.5c-0.2-0.9-3.4-0.1-3.2,0.8C86.5,74.5,89.8,73.8,89.7,73.5z"/>
	</g>
</g>
<g id="XMLID_217_">
	<g id="frame_1_">
		<circle id="Oval-1_1_" class="st5" cx="39.1" cy="58.8" r="16.2"/>
	</g>
	<g id="face-shape_1_">
		<polygon id="Polygon-1_1_" class="st6" points="36.3,46.8 49.9,52.6 48.6,67.3 34.2,70.6 26.6,57.9 		"/>
	</g>
	<g id="eyes_1_">
		<path id="Rectangle-8_1_" d="M35.6,56.7L35.6,56.7c0.3-0.1,0.6,0.4,0.8,1.1l0,0c0.2,0.7,0,1.3-0.2,1.3l0,0
			c-0.3,0.1-0.6-0.4-0.8-1.1l0,0C35.2,57.4,35.3,56.8,35.6,56.7z"/>
		<path id="Rectangle-8-Copy_1_" d="M41.4,55.4L41.4,55.4c0.3-0.1,0.6,0.4,0.8,1.1l0,0c0.2,0.7,0,1.3-0.2,1.3l0,0
			c-0.3,0.1-0.6-0.4-0.8-1.1l0,0C41,56,41.1,55.4,41.4,55.4z"/>
	</g>
	<g id="nose_1_">
		<polygon id="XMLID_218_" points="39.5,57.2 40,59.6 37.7,59.1 		"/>
	</g>
	<g id="mouth_1_">
		<path id="Oval-12_1_" d="M41.3,65.9c2-0.5,3.3-2.5,2.8-4.5c-0.5-2-7.7-0.3-7.3,1.7C37.3,65.1,39.3,66.3,41.3,65.9L41.3,65.9z"/>
		<path id="Oval-12-2_1_" class="st5" d="M44.1,61.4c-0.5-2-7.7-0.3-7.3,1.7C37,63.6,44.2,61.9,44.1,61.4z"/>
	</g>
</g>
<g id="XMLID_6_">
	<g id="frame_4_">
		<circle id="Oval-1_4_" class="st5" cx="115.5" cy="66.8" r="13.6"/>
	</g>
	<g id="face-shape_4_">
		<polygon id="Polygon-1_4_" class="st6" points="118.7,57 125.9,67.1 118.6,77 106.8,73.1 106.9,60.7 		"/>
	</g>
	<g id="eyes_4_">
		<path id="Rectangle-8_4_" d="M113.8,63.8L113.8,63.8c0.2,0.1,0.3,0.6,0.1,1.1l0,0c-0.2,0.5-0.5,0.9-0.7,0.8l0,0
			c-0.2-0.1-0.3-0.6-0.1-1.1l0,0C113.3,64.1,113.6,63.7,113.8,63.8z"/>
		<path id="Rectangle-8-Copy_4_" d="M118.6,65.3L118.6,65.3c0.2,0.1,0.3,0.6,0.1,1.1l0,0c-0.2,0.5-0.5,0.9-0.7,0.8l0,0
			c-0.2-0.1-0.3-0.6-0.1-1.1l0,0C118,65.6,118.4,65.3,118.6,65.3z"/>
	</g>
	<g id="nose_4_">
		<polygon id="XMLID_18_" points="116.4,65.9 115.8,67.8 114.4,66.4 		"/>
	</g>
	<g id="mouth_4_">
		<path id="Oval-12_4_" d="M114,72.8c1.6,0.5,3.4-0.3,4-2c0.5-1.6-5.4-3.6-5.9-2C111.4,70.5,112.3,72.3,114,72.8L114,72.8z"/>
		<path id="Oval-12-2_4_" class="st5" d="M117.9,70.8c0.5-1.6-5.4-3.6-5.9-2C111.8,69.3,117.8,71.3,117.9,70.8z"/>
	</g>
</g>
<g id="XMLID_224_">
	<g id="frame_2_">
		<circle id="Oval-1_2_" class="st5" cx="130.1" cy="110.9" r="18"/>
	</g>
	<g id="face-shape_2_">
		<polygon id="Polygon-1_2_" class="st6" points="131.9,97.3 143.8,108.6 136.8,123.4 120.5,121.3 117.5,105.2 		"/>
	</g>
	<g id="eyes_2_">
		<path id="Rectangle-8_2_" d="M127.2,107.4L127.2,107.4c0.3,0,0.5,0.7,0.4,1.4l0,0c-0.1,0.7-0.4,1.3-0.8,1.3l0,0
			c-0.3,0-0.5-0.7-0.4-1.4l0,0C126.6,107.9,126.9,107.3,127.2,107.4z"/>
		<path id="Rectangle-8-Copy_2_" d="M133.8,108.2L133.8,108.2c0.3,0,0.5,0.7,0.4,1.4l0,0c-0.1,0.7-0.4,1.3-0.8,1.3l0,0
			c-0.3,0-0.5-0.7-0.4-1.4l0,0C133.2,108.8,133.5,108.2,133.8,108.2z"/>
	</g>
	<g id="nose_2_">
		<polygon id="XMLID_225_" points="131.1,109.5 130.7,112.2 128.6,110.7 		"/>
	</g>
	<g id="mouth_2_">
		<path id="Oval-12_2_" d="M129.7,119.1c2.3,0.3,4.3-1.3,4.6-3.6c0.3-2.3-7.9-3.3-8.2-1.1C125.8,116.7,127.4,118.8,129.7,119.1
			L129.7,119.1z"/>
		<path id="Oval-12-2_2_" class="st5" d="M134.3,115.5c0.3-2.3-7.9-3.3-8.2-1.1C126,115.1,134.3,116.2,134.3,115.5z"/>
	</g>
</g>
<g id="XMLID_12_">
	<path id="XMLID_11_" class="st5" d="M244.8,95.2h-17.3c-1.4,0-2.6-1.5-2.6-3s1.2-3,2.6-3h17.3c1.1,0,4.9,0,4.9-5.3
		c0-1.1-0.2-1.7-0.7-2.2c-0.5-0.5-1.1-0.5-1.4-0.5c-0.2,0-1.8,0.1-1.8,1.9c0,1.5-1.2,2.8-2.6,2.8s-2.6-1.2-2.6-2.7
		c0-4.2,3-7.4,7-7.4c1.9,0,3.7,0.8,5,2.2c1,1.1,2.2,2.9,2.2,6.2C254.9,90.8,250.7,95.2,244.8,95.2z"/>
	<path id="XMLID_10_" class="st5" d="M247.5,126.7c-3.9,0-6.9-3.1-6.9-7.3c0-1.5,1.2-2.7,2.6-2.7s2.6,1.2,2.6,2.7
		c0,1.8,1.5,1.8,1.8,1.8c0.3,0,0.9-0.1,1.4-0.6c0.5-0.5,0.7-1.1,0.7-2.2c0-1.6-0.5-5.2-4.9-5.2h-17.3c-1.4,0-2.6-1.5-2.6-3
		s1.2-3,2.6-3h17.3c6,0,10,4.4,10,10.9c0,3.3-1.2,5.2-2.2,6.3C251.3,125.9,249.5,126.7,247.5,126.7z"/>
	<path id="XMLID_9_" class="st5" d="M260.5,104.2h-31.7c-1.4,0-2.6-1.5-2.6-3c0-1.5,1.2-3,2.6-3h31.7c3.6,0,4.9-3.1,4.9-5.8
		c0-1.1-0.2-2-0.7-2.5c-0.5-0.5-1.1-0.6-1.4-0.6c-0.2,0-1.8,0-1.8,1.9c0,1.5-1.2,2.7-2.6,2.7c-1.4,0-2.6-1.2-2.6-2.7
		c0-4.2,3-7.4,7-7.4c1.9,0,3.7,0.8,5,2.2c1,1.1,2.2,3.4,2.2,6.6C270.5,99.3,266.4,104.2,260.5,104.2z"/>
</g>
<g id="XMLID_4_">
	<g id="XMLID_52_">
		<g id="XMLID_53_">
			<path id="XMLID_48_" class="st5" d="M320.8-25.5c-0.5,0-1-0.2-1.4-0.6c-0.8-0.8-0.8-2-0.1-2.9l4.5-4.7l-4.5-4.7
				c-0.8-0.8-0.7-2.1,0.1-2.9c0.8-0.8,2.1-0.7,2.9,0.1l5.8,6.1c0.7,0.8,0.7,2,0,2.8l-5.8,6.1C321.9-25.8,321.3-25.5,320.8-25.5z"/>
		</g>
	</g>
	<line id="XMLID_49_" class="st7" x1="324.5" y1="-33.8" x2="294.9" y2="-33.8"/>
</g>
<g id="XMLID_7_">
	<g id="XMLID_15_">
		<g id="XMLID_16_">
			<path id="XMLID_17_" class="st5" d="M198,111.3c-0.5,0-1-0.2-1.4-0.6c-0.8-0.8-0.8-2-0.1-2.9l4.5-4.7l-4.5-4.7
				c-0.8-0.8-0.7-2.1,0.1-2.9c0.8-0.8,2.1-0.7,2.9,0.1l5.8,6.1c0.7,0.8,0.7,2,0,2.8l-5.8,6.1C199.1,111,198.5,111.3,198,111.3z"/>
		</g>
	</g>
	<line id="XMLID_8_" class="st7" x1="201.7" y1="103" x2="172.1" y2="103"/>
</g>
</svg>
