<?xml version="1.0" encoding="utf-8"?>
<!-- Generator: Adobe Illustrator 19.0.0, SVG Export Plug-In . SVG Version: 6.00 Build 0)  -->
<svg version="1.1" id="Calque_1" xmlns="http://www.w3.org/2000/svg" xmlns:xlink="http://www.w3.org/1999/xlink" x="0px" y="0px"
	 viewBox="0 0 377.5 251.4" style="enable-background:new 0 0 377.5 251.4;" xml:space="preserve">
<style type="text/css">
	.st0{fill:#2BC070;}
	.st1{opacity:0.5;fill:#0E733D;enable-background:new    ;}
	.st2{fill:#26A25F;stroke:#FFFFFF;stroke-width:5;stroke-miterlimit:10;}
	.st3{opacity:0.5;}
	.st4{fill:#0E733D;enable-background:new    ;}
	.st5{fill:none;}
	.st6{fill:#FFFFFF;}
	.st7{font-family:'SourceSansPro-Bold';}
	.st8{font-size:40px;}
	.st9{font-size:12px;}
	.st10{font-family:'SourceSansPro-Black';}
	.st11{font-size:15px;}
	.st12{fill:#22DDDD;}
	.st13{fill:none;stroke:#FFFFFF;stroke-width:4;stroke-linecap:round;stroke-linejoin:round;stroke-miterlimit:10;}
</style>
<path id="XMLID_13_" class="st0" d="M429.5,309H-59.1c-9.1,0-16.6-7.5-16.6-16.6V35.1c0-9.1,7.5-16.6,16.6-16.6c0,0,189,0,199.1,0
	s22.4-18,32.5-18c10.1,0,22,18,32.3,18s224.7,0,224.7,0c9.1,0,16.6,7.5,16.6,16.6v257.3C446.1,301.5,438.6,309,429.5,309z"/>
<ellipse id="XMLID_24_" class="st1" cx="317.8" cy="134.9" rx="39.5" ry="6.4"/>
<circle id="XMLID_25_" class="st2" cx="317.5" cy="99" r="35"/>
<g id="XMLID_21_" class="st3">
	<ellipse id="XMLID_5_" class="st4" cx="77" cy="137.9" rx="35.7" ry="5.8"/>
	<ellipse id="XMLID_22_" class="st4" cx="129.8" cy="137.9" rx="25.1" ry="4.1"/>
	<ellipse id="XMLID_23_" class="st4" cx="36.7" cy="137.9" rx="11.9" ry="1.9"/>
</g>
<rect id="XMLID_68_" x="21.1" y="177.9" class="st5" width="148.3" height="54"/>
<text id="XMLID_69_" transform="matrix(1 0 0 1 21.0549 205.9656)" class="st6 st7 st8">753</text>
<g id="XMLID_26_">
	<path id="XMLID_27_" class="st6" d="M300.1,100.8h-4.2v-2.9h4.2v-4.4h3v4.4h4.2v2.9h-4.2v4.4h-3V100.8z"/>
	<path id="XMLID_29_" class="st6" d="M313.8,99.2V99c-1.8-1.3-3.2-3-3.2-5.4c0-3.7,3-6.1,7-6.1c4.1,0,6.8,2.5,6.8,6.2
		c0,2.3-1.6,4.2-3.1,5.3v0.1c2.1,1.2,4,2.9,4,6c0,3.6-3.1,6.3-7.8,6.3c-4.5,0-7.8-2.6-7.8-6.4C309.6,102.2,311.6,100.3,313.8,99.2z
		 M317.5,108.5c2.2,0,3.8-1.3,3.8-3.4c0-2.5-2.4-3.4-5.6-4.7c-1.5,1.1-2.5,2.5-2.5,4.3C313.3,106.9,315.2,108.5,317.5,108.5z
		 M320.9,94c0-2-1.3-3.5-3.4-3.5c-1.8,0-3.2,1.2-3.2,3.2c0,2.3,2.1,3.3,4.6,4.4C320.2,96.7,320.9,95.4,320.9,94z"/>
	<path id="XMLID_33_" class="st6" d="M327.1,91.2c0-2.4,1.3-3.7,3-3.7s3,1.4,3,3.7c0,2.4-1.3,3.8-3,3.8S327.1,93.6,327.1,91.2z
		 M331.1,91.2c0-1.6-0.4-2-0.9-2s-0.9,0.4-0.9,2c0,1.6,0.4,2.1,0.9,2.1S331.1,92.8,331.1,91.2z M330.6,99.7l6.3-12.2h1.7l-6.3,12.2
		H330.6z M336,96c0-2.4,1.3-3.7,3-3.7s3,1.4,3,3.7c0,2.4-1.3,3.8-3,3.8S336,98.3,336,96z M340,96c0-1.6-0.4-2-0.9-2
		c-0.5,0-0.9,0.4-0.9,2c0,1.6,0.4,2.1,0.9,2.1C339.5,98,340,97.6,340,96z"/>
</g>
<rect id="XMLID_72_" x="22.1" y="213.7" class="st5" width="172.2" height="11.7"/>
<text id="XMLID_71_" transform="matrix(1 0 0 1 22.0549 222.1301)" class="st6 st7 st9">IN YOUR CARE COMMUNITY</text>
<rect id="XMLID_79_" x="22.1" y="165.4" class="st5" width="148.3" height="33.7"/>
<text id="XMLID_78_" transform="matrix(1 0 0 1 22.0549 173.8136)" class="st6 st7 st9">YOU ARE</text>
<rect id="XMLID_74_" x="393.1" y="179.7" class="st5" width="148.3" height="33.7"/>
<text id="XMLID_73_" transform="matrix(1 0 0 1 393.0611 191.6515)"><tspan x="0" y="0" class="st6 st10" style="font-size:17px;">#1336</tspan><tspan x="45.9" y="0" class="st6 st7" style="font-size:17px;"> IN FRANCE</tspan><tspan x="0" y="14.4" class="st6 st9" style="font-family:'SourceSansPro-Regular';">View France’s ranking</tspan></text>
<g id="XMLID_76_">
	<g id="XMLID_77_">
		<path id="XMLID_70_" class="st6" d="M401.9,236.2c-0.3,0-0.7-0.1-1-0.4c-0.6-0.5-0.6-1.4,0-2l3.2-3.3l-3.1-3.3
			c-0.5-0.6-0.5-1.5,0-2c0.6-0.5,1.5-0.5,2,0l4.1,4.3c0.5,0.5,0.5,1.4,0,2l-4.1,4.3C402.6,236.1,402.3,236.2,401.9,236.2z"/>
	</g>
</g>
<text id="XMLID_3_" transform="matrix(1 0 0 1 238.2169 189.3022)"><tspan x="0" y="0" class="st6 st7 st9">TOGETHER, YOU HAVE</tspan><tspan x="-43" y="16" class="st6 st10 st11">IMPROVED AIR QUALITY</tspan><tspan x="7.7" y="32" class="st6 st7 st9">BY 8% IN YOUR AREA</tspan></text>
<g id="XMLID_2_">
	<g id="frame">
		<circle id="Oval-1" class="st6" cx="76.8" cy="106.2" r="30.9"/>
	</g>
	<g id="face-shape">
		<polygon id="Polygon-1" class="st12" points="76.8,82.6 99.6,99.2 90.9,126 62.7,126 54,99.2 		"/>
	</g>
	<g id="eyes">
		<path id="Rectangle-8" d="M71.1,100.8L71.1,100.8c0.6,0,1,1.1,1,2.4l0,0c0,1.3-0.5,2.4-1,2.4l0,0c-0.6,0-1-1.1-1-2.4l0,0
			C70.1,101.8,70.5,100.8,71.1,100.8z"/>
		<path id="Rectangle-8-Copy" d="M82.5,100.8L82.5,100.8c0.6,0,1,1.1,1,2.4l0,0c0,1.3-0.5,2.4-1,2.4l0,0c-0.6,0-1-1.1-1-2.4l0,0
			C81.5,101.8,82,100.8,82.5,100.8z"/>
	</g>
	<g id="nose">
		<polygon id="XMLID_55_" points="78.2,103.5 78.2,108.2 74.1,106.2 		"/>
	</g>
	<g id="mouth">
		<path id="Oval-12" d="M77.9,120.3c3.9,0,7.1-3.2,7.1-7.1c0-3.9-14.3-3.9-14.3,0C70.8,117.1,74,120.3,77.9,120.3L77.9,120.3z"/>
		<path id="Oval-12-2" class="st6" d="M85,113.1c0-3.9-14.3-3.9-14.3,0C70.8,114.2,85,114.2,85,113.1z"/>
	</g>
</g>
<g id="XMLID_231_">
	<g id="frame_3_">
		<circle id="Oval-1_3_" class="st6" cx="36.6" cy="119.5" r="7.2"/>
	</g>
	<g id="face-shape_3_">
		<polygon id="Polygon-1_3_" class="st12" points="37.4,114.1 42.1,118.8 39.1,124.6 32.6,123.6 31.6,117.1 		"/>
	</g>
	<g id="eyes_3_">
		<path id="Rectangle-8_3_" d="M35.5,118.1L35.5,118.1c0.1,0,0.2,0.3,0.1,0.6l0,0c0,0.3-0.2,0.5-0.3,0.5l0,0c-0.1,0-0.2-0.3-0.1-0.6
			l0,0C35.2,118.3,35.4,118.1,35.5,118.1z"/>
		<path id="Rectangle-8-Copy_3_" d="M38.1,118.5L38.1,118.5c0.1,0,0.2,0.3,0.1,0.6l0,0c0,0.3-0.2,0.5-0.3,0.5l0,0
			c-0.1,0-0.2-0.3-0.1-0.6l0,0C37.8,118.7,38,118.5,38.1,118.5z"/>
	</g>
	<g id="nose_3_">
		<polygon id="XMLID_232_" points="37,119 36.8,120 36,119.4 		"/>
	</g>
	<g id="mouth_3_">
		<path id="Oval-12_3_" d="M36.3,122.8c0.9,0.1,1.8-0.5,1.9-1.4c0.1-0.9-3.1-1.4-3.3-0.5C34.8,121.8,35.4,122.7,36.3,122.8
			L36.3,122.8z"/>
		<path id="Oval-12-2_3_" class="st6" d="M38.2,121.4c0.1-0.9-3.1-1.4-3.3-0.5C34.9,121.2,38.2,121.7,38.2,121.4z"/>
	</g>
</g>
<g id="XMLID_19_">
	<g id="frame_5_">
		<circle id="Oval-1_5_" class="st6" cx="87.5" cy="72.4" r="7.2"/>
	</g>
	<g id="face-shape_5_">
		<polygon id="Polygon-1_5_" class="st12" points="86.2,67.1 92.2,69.6 91.7,76.1 85.4,77.7 81.9,72.1 		"/>
	</g>
	<g id="eyes_5_">
		<path id="Rectangle-8_5_" d="M85.9,71.5L85.9,71.5c0.1,0,0.3,0.2,0.4,0.5l0,0c0.1,0.3,0,0.6-0.1,0.6l0,0c-0.1,0-0.3-0.2-0.4-0.5
			l0,0C85.7,71.8,85.8,71.5,85.9,71.5z"/>
		<path id="Rectangle-8-Copy_5_" d="M88.5,70.9L88.5,70.9c0.1,0,0.3,0.2,0.4,0.5l0,0c0.1,0.3,0,0.6-0.1,0.6l0,0
			c-0.1,0-0.3-0.2-0.4-0.5l0,0C88.3,71.2,88.3,70.9,88.5,70.9z"/>
	</g>
	<g id="nose_5_">
		<polygon id="XMLID_20_" points="87.6,71.7 87.9,72.8 86.9,72.5 		"/>
	</g>
	<g id="mouth_5_">
		<path id="Oval-12_5_" d="M88.5,75.5c0.9-0.2,1.4-1.1,1.2-2c-0.2-0.9-3.4-0.1-3.2,0.8C86.7,75.2,87.6,75.7,88.5,75.5L88.5,75.5z"/>
		<path id="Oval-12-2_5_" class="st6" d="M89.7,73.5c-0.2-0.9-3.4-0.1-3.2,0.8C86.5,74.5,89.8,73.8,89.7,73.5z"/>
	</g>
</g>
<g id="XMLID_217_">
	<g id="frame_1_">
		<circle id="Oval-1_1_" class="st6" cx="39.1" cy="58.8" r="16.2"/>
	</g>
	<g id="face-shape_1_">
		<polygon id="Polygon-1_1_" class="st12" points="36.3,46.8 49.9,52.6 48.6,67.3 34.2,70.6 26.6,57.9 		"/>
	</g>
	<g id="eyes_1_">
		<path id="Rectangle-8_1_" d="M35.6,56.7L35.6,56.7c0.3-0.1,0.6,0.4,0.8,1.1l0,0c0.2,0.7,0,1.3-0.2,1.3l0,0
			c-0.3,0.1-0.6-0.4-0.8-1.1l0,0C35.2,57.4,35.3,56.8,35.6,56.7z"/>
		<path id="Rectangle-8-Copy_1_" d="M41.4,55.4L41.4,55.4c0.3-0.1,0.6,0.4,0.8,1.1l0,0c0.2,0.7,0,1.3-0.2,1.3l0,0
			c-0.3,0.1-0.6-0.4-0.8-1.1l0,0C41,56,41.1,55.4,41.4,55.4z"/>
	</g>
	<g id="nose_1_">
		<polygon id="XMLID_218_" points="39.5,57.2 40,59.6 37.7,59.1 		"/>
	</g>
	<g id="mouth_1_">
		<path id="Oval-12_1_" d="M41.3,65.9c2-0.5,3.3-2.5,2.8-4.5c-0.5-2-7.7-0.3-7.3,1.7C37.3,65.1,39.3,66.3,41.3,65.9L41.3,65.9z"/>
		<path id="Oval-12-2_1_" class="st6" d="M44.1,61.4c-0.5-2-7.7-0.3-7.3,1.7C37,63.6,44.2,61.9,44.1,61.4z"/>
	</g>
</g>
<g id="XMLID_6_">
	<g id="frame_4_">
		<circle id="Oval-1_4_" class="st6" cx="115.5" cy="66.8" r="13.6"/>
	</g>
	<g id="face-shape_4_">
		<polygon id="Polygon-1_4_" class="st12" points="118.7,57 125.9,67.1 118.6,77 106.8,73.1 106.9,60.7 		"/>
	</g>
	<g id="eyes_4_">
		<path id="Rectangle-8_4_" d="M113.8,63.8L113.8,63.8c0.2,0.1,0.3,0.6,0.1,1.1l0,0c-0.2,0.5-0.5,0.9-0.7,0.8l0,0
			c-0.2-0.1-0.3-0.6-0.1-1.1l0,0C113.3,64.1,113.6,63.7,113.8,63.8z"/>
		<path id="Rectangle-8-Copy_4_" d="M118.6,65.3L118.6,65.3c0.2,0.1,0.3,0.6,0.1,1.1l0,0c-0.2,0.5-0.5,0.9-0.7,0.8l0,0
			c-0.2-0.1-0.3-0.6-0.1-1.1l0,0C118,65.6,118.4,65.3,118.6,65.3z"/>
	</g>
	<g id="nose_4_">
		<polygon id="XMLID_18_" points="116.4,65.9 115.8,67.8 114.4,66.4 		"/>
	</g>
	<g id="mouth_4_">
		<path id="Oval-12_4_" d="M114,72.8c1.6,0.5,3.4-0.3,4-2c0.5-1.6-5.4-3.6-5.9-2C111.4,70.5,112.3,72.3,114,72.8L114,72.8z"/>
		<path id="Oval-12-2_4_" class="st6" d="M117.9,70.8c0.5-1.6-5.4-3.6-5.9-2C111.8,69.3,117.8,71.3,117.9,70.8z"/>
	</g>
</g>
<g id="XMLID_224_">
	<g id="frame_2_">
		<circle id="Oval-1_2_" class="st6" cx="130.1" cy="110.9" r="18"/>
	</g>
	<g id="face-shape_2_">
		<polygon id="Polygon-1_2_" class="st12" points="131.9,97.3 143.8,108.6 136.8,123.4 120.5,121.3 117.5,105.2 		"/>
	</g>
	<g id="eyes_2_">
		<path id="Rectangle-8_2_" d="M127.2,107.4L127.2,107.4c0.3,0,0.5,0.7,0.4,1.4l0,0c-0.1,0.7-0.4,1.3-0.8,1.3l0,0
			c-0.3,0-0.5-0.7-0.4-1.4l0,0C126.6,107.9,126.9,107.3,127.2,107.4z"/>
		<path id="Rectangle-8-Copy_2_" d="M133.8,108.2L133.8,108.2c0.3,0,0.5,0.7,0.4,1.4l0,0c-0.1,0.7-0.4,1.3-0.8,1.3l0,0
			c-0.3,0-0.5-0.7-0.4-1.4l0,0C133.2,108.8,133.5,108.2,133.8,108.2z"/>
	</g>
	<g id="nose_2_">
		<polygon id="XMLID_225_" points="131.1,109.5 130.7,112.2 128.6,110.7 		"/>
	</g>
	<g id="mouth_2_">
		<path id="Oval-12_2_" d="M129.7,119.1c2.3,0.3,4.3-1.3,4.6-3.6c0.3-2.3-7.9-3.3-8.2-1.1C125.8,116.7,127.4,118.8,129.7,119.1
			L129.7,119.1z"/>
		<path id="Oval-12-2_2_" class="st6" d="M134.3,115.5c0.3-2.3-7.9-3.3-8.2-1.1C126,115.1,134.3,116.2,134.3,115.5z"/>
	</g>
</g>
<g id="XMLID_12_">
	<path id="XMLID_11_" class="st6" d="M244.8,95.2h-17.3c-1.4,0-2.6-1.5-2.6-3s1.2-3,2.6-3h17.3c1.1,0,4.9,0,4.9-5.3
		c0-1.1-0.2-1.7-0.7-2.2c-0.5-0.5-1.1-0.5-1.4-0.5c-0.2,0-1.8,0.1-1.8,1.9c0,1.5-1.2,2.8-2.6,2.8s-2.6-1.2-2.6-2.7
		c0-4.2,3-7.4,7-7.4c1.9,0,3.7,0.8,5,2.2c1,1.1,2.2,2.9,2.2,6.2C254.9,90.8,250.7,95.2,244.8,95.2z"/>
	<path id="XMLID_10_" class="st6" d="M247.5,126.7c-3.9,0-6.9-3.1-6.9-7.3c0-1.5,1.2-2.7,2.6-2.7s2.6,1.2,2.6,2.7
		c0,1.8,1.5,1.8,1.8,1.8c0.3,0,0.9-0.1,1.4-0.6c0.5-0.5,0.7-1.1,0.7-2.2c0-1.6-0.5-5.2-4.9-5.2h-17.3c-1.4,0-2.6-1.5-2.6-3
		s1.2-3,2.6-3h17.3c6,0,10,4.4,10,10.9c0,3.3-1.2,5.2-2.2,6.3C251.3,125.9,249.5,126.7,247.5,126.7z"/>
	<path id="XMLID_9_" class="st6" d="M260.5,104.2h-31.7c-1.4,0-2.6-1.5-2.6-3c0-1.5,1.2-3,2.6-3h31.7c3.6,0,4.9-3.1,4.9-5.8
		c0-1.1-0.2-2-0.7-2.5c-0.5-0.5-1.1-0.6-1.4-0.6c-0.2,0-1.8,0-1.8,1.9c0,1.5-1.2,2.7-2.6,2.7c-1.4,0-2.6-1.2-2.6-2.7
		c0-4.2,3-7.4,7-7.4c1.9,0,3.7,0.8,5,2.2c1,1.1,2.2,3.4,2.2,6.6C270.5,99.3,266.4,104.2,260.5,104.2z"/>
</g>
<g id="XMLID_4_">
	<g id="XMLID_52_">
		<g id="XMLID_53_">
			<path id="XMLID_48_" class="st6" d="M320.8-25.5c-0.5,0-1-0.2-1.4-0.6c-0.8-0.8-0.8-2-0.1-2.9l4.5-4.7l-4.5-4.7
				c-0.8-0.8-0.7-2.1,0.1-2.9c0.8-0.8,2.1-0.7,2.9,0.1l5.8,6.1c0.7,0.8,0.7,2,0,2.8l-5.8,6.1C321.9-25.8,321.3-25.5,320.8-25.5z"/>
		</g>
	</g>
	<line id="XMLID_49_" class="st13" x1="324.5" y1="-33.8" x2="294.9" y2="-33.8"/>
</g>
<g id="XMLID_7_">
	<g id="XMLID_15_">
		<g id="XMLID_16_">
			<path id="XMLID_17_" class="st6" d="M198,111.3c-0.5,0-1-0.2-1.4-0.6c-0.8-0.8-0.8-2-0.1-2.9l4.5-4.7l-4.5-4.7
				c-0.8-0.8-0.7-2.1,0.1-2.9c0.8-0.8,2.1-0.7,2.9,0.1l5.8,6.1c0.7,0.8,0.7,2,0,2.8l-5.8,6.1C199.1,111,198.5,111.3,198,111.3z"/>
		</g>
	</g>
	<line id="XMLID_8_" class="st13" x1="201.7" y1="103" x2="172.1" y2="103"/>
</g>
</svg>
