<svg id="Calque_1" data-name="Calque 1" xmlns="http://www.w3.org/2000/svg" viewBox="0 0 92 92"><title>round-face-2</title><g id="Page-1"><g id="A4"><g id="round-face"><circle id="Oval-1-Copy-5" cx="46" cy="46" r="46" style="fill:#fff"/><path id="Oval-21" d="M46,76A31,31,0,1,0,15,45,31,31,0,0,0,46,76Z" transform="translate(0 0)" style="fill:#9842ca"/><path id="Oval-21-2" data-name="Oval-21" d="M46.5,63.9A7.55,7.55,0,0,0,54,56.3c0-4.09-15-4.19-15,0A7.55,7.55,0,0,0,46.5,63.9Z" transform="translate(0 0)"/><path id="Oval-21-3" data-name="Oval-21" d="M54,56.3c0-4.09-15-4.19-15,0C39,56.93,54,56.93,54,56.3Z" transform="translate(0 0)" style="fill:#fff"/><path id="Rectangle-8" d="M33.5,35h0c0.83,0,1.5,1.57,1.5,3.5h0c0,1.93-.67,3.5-1.5,3.5h0c-0.83,0-1.5-1.57-1.5-3.5h0C32,36.57,32.67,35,33.5,35Z" transform="translate(0 0)"/><path id="Rectangle-8-Copy" d="M58.5,35h0c0.83,0,1.5,1.57,1.5,3.5h0c0,1.93-.67,3.5-1.5,3.5h0c-0.83,0-1.5-1.57-1.5-3.5h0C57,36.57,57.67,35,58.5,35Z" transform="translate(0 0)"/><polygon id="Triangle-5" points="47 37 47 48 42 46 47 37"/></g></g></g></svg>