<svg id="Calque_1" data-name="Calque 1" xmlns="http://www.w3.org/2000/svg" viewBox="0 0 92 92"><title>square-face-2</title><g id="Page-1"><g id="A4"><g id="square-face"><circle id="Oval-1-Copy-6" cx="46" cy="46" r="46" style="fill:#fff"/><rect id="Rectangle-10" x="18" y="19" width="57" height="57" style="fill:#f31eaf"/><path id="Rectangle-8" d="M35.5,39h0c0.83,0,1.5,1.57,1.5,3.5h0c0,1.93-.67,3.5-1.5,3.5h0c-0.83,0-1.5-1.57-1.5-3.5h0C34,40.57,34.67,39,35.5,39Z" transform="translate(0 0)"/><path id="Rectangle-8-Copy" d="M55.5,39h0c0.83,0,1.5,1.57,1.5,3.5h0c0,1.93-.67,3.5-1.5,3.5h0c-0.83,0-1.5-1.57-1.5-3.5h0C54,40.57,54.67,39,55.5,39Z" transform="translate(0 0)"/><polygon id="Triangle-6" points="46 40 46 55 38 55 46 40"/><path id="Oval-25" d="M46,68a6,6,0,0,0,6-6c0-3.31-12-3.31-12,0A6,6,0,0,0,46,68Z" transform="translate(0 0)"/><path id="Oval-25-2" data-name="Oval-25" d="M52,62c0-3.31-12-3.31-12,0C40,63,52,63,52,62Z" transform="translate(0 0)" style="fill:#fff"/></g></g></g></svg>