<svg id="Calque_1" data-name="Calque 1" xmlns="http://www.w3.org/2000/svg" viewBox="0 0 92 92"><title>triangle-face-2</title><g id="Page-1"><g id="A4"><g id="triangle-face"><circle id="Oval-1-Copy" cx="46" cy="46" r="46" style="fill:#fff"/><polygon id="Triangle-3" points="46.5 13 78 76 15 76 46.5 13" style="fill:#1eedf3"/><path id="Rectangle-8" d="M39.5,42h0c0.83,0,1.5,1.57,1.5,3.5h0c0,1.93-.67,3.5-1.5,3.5h0c-0.83,0-1.5-1.57-1.5-3.5h0C38,43.57,38.67,42,39.5,42Z" transform="translate(0 0)"/><path id="Rectangle-8-Copy" d="M53.5,42h0c0.83,0,1.5,1.57,1.5,3.5h0c0,1.93-.67,3.5-1.5,3.5h0c-0.83,0-1.5-1.57-1.5-3.5h0C52,43.57,52.67,42,53.5,42Z" transform="translate(0 0)"/><polygon id="Triangle-4" points="47 45 47 53 43 54 47 45"/><path id="Oval-10" d="M46,65a5,5,0,0,0,5-5c0-2.76-10-2.76-10,0A5,5,0,0,0,46,65Z" transform="translate(0 0)"/><path id="Oval-10-2" data-name="Oval-10" d="M51,60c0-2.76-10-2.76-10,0C41,61,51,61,51,60Z" transform="translate(0 0)" style="fill:#fff"/></g></g></g></svg>