<?xml version="1.0" encoding="utf-8"?>
<!-- Generator: Adobe Illustrator 19.0.0, SVG Export Plug-In . SVG Version: 6.00 Build 0)  -->
<svg version="1.1" id="Calque_1" xmlns="http://www.w3.org/2000/svg" xmlns:xlink="http://www.w3.org/1999/xlink" x="0px" y="0px"
	 viewBox="-1843.4 981.3 156.4 100.4" style="enable-background:new -1843.4 981.3 156.4 100.4;" xml:space="preserve">
<style type="text/css">
	.st0{opacity:0.5;fill:#0E733D;enable-background:new    ;}
	.st1{fill:#FFFFFF;}
	.st2{fill:none;stroke:#FFFFFF;stroke-width:4;stroke-linecap:round;stroke-linejoin:round;stroke-miterlimit:10;}
	.st3{fill:#2BC070;}
	.st4{fill:#C0392B;}
</style>
<title>logo-white</title>
<desc>Created with Sketch.</desc>
<g>
	<ellipse id="XMLID_40_" class="st0" cx="-1816.9" cy="1077.7" rx="23.2" ry="3.8"/>
	<ellipse id="XMLID_54_" class="st0" cx="-1711.6" cy="1077.7" rx="24.6" ry="4"/>
	<g id="Page-1">
		<g id="A4" transform="translate(-321.000000, -266.000000)">
			<g id="logos" transform="translate(0.000000, 233.000000)">
				<g id="logo-white" transform="translate(326.000000, 37.000000)">
					<path id="XMLID_45_" class="st1" d="M-1821.5,1073.6c-6.9,0-13.7-2.6-19-7.8c-5.1-5-7.9-11.7-7.9-18.8s2.8-13.8,7.9-18.8
						c10.5-10.4,27.5-10.4,37.9,0c1.1,1.1,1.1,2.9,0,4s-2.9,1.1-4,0c-8.3-8.2-21.7-8.2-30,0c-4,4-6.2,9.2-6.2,14.8
						s2.2,10.9,6.2,14.8c8.3,8.2,21.7,8.2,30,0c1.1-1.1,2.9-1.1,4,0s1.1,2.9,0,4C-1807.7,1071-1814.6,1073.6-1821.5,1073.6z"/>
					<path id="XMLID_44_" class="st1" d="M-1821.6,1065.3c-4.5,0-9-1.6-12.5-4.9c-3.6-3.3-5.7-7.9-5.8-12.8
						c-0.2-4.9,1.6-9.6,4.9-13.2c6.9-7.4,18.6-7.8,26-0.9c1.1,1.1,1.2,2.9,0.1,4c-1.1,1.1-2.9,1.2-4,0.1c-5.1-4.8-13.2-4.5-18,0.6
						c-2.3,2.5-3.5,5.7-3.4,9.1c0.1,3.4,1.5,6.5,4,8.8c5.1,4.8,13.2,4.5,18-0.6c1.1-1.1,2.9-1.2,4-0.1c1.1,1.1,1.2,2.9,0.1,4
						C-1811.7,1063.4-1816.7,1065.3-1821.6,1065.3z"/>
					<path id="XMLID_43_" class="st1" d="M-1821.4,1057.3c-2.6,0-5.3-1-7.3-3c-2-1.9-3-4.5-3-7.2c0-2.7,1.1-5.3,3-7.2
						c4-3.9,10.5-3.9,14.5,0c1.1,1.1,1.1,2.9,0,4c-1.1,1.1-2.9,1.1-4,0c-1.8-1.8-4.7-1.8-6.5,0c-0.9,0.8-1.3,2-1.3,3.1
						c0,1.2,0.5,2.3,1.3,3.2c1.8,1.8,4.7,1.8,6.5,0c1.1-1.1,2.9-1.1,4,0c1.1,1.1,1.1,2.9,0,4
						C-1816.2,1056.3-1818.8,1057.3-1821.4,1057.3z"/>
				</g>
			</g>
		</g>
	</g>
	<g id="XMLID_52_">
		<g id="XMLID_53_">
			<path id="XMLID_48_" class="st1" d="M-1747.7,1053c-0.5,0-1-0.2-1.4-0.6c-0.8-0.8-0.8-2-0.1-2.9l4.5-4.7l-4.5-4.7
				c-0.8-0.8-0.7-2.1,0.1-2.9c0.8-0.8,2.1-0.7,2.9,0.1l5.8,6.1c0.7,0.8,0.7,2,0,2.8l-5.8,6.1
				C-1746.6,1052.7-1747.2,1053-1747.7,1053z"/>
		</g>
	</g>
	<line id="XMLID_49_" class="st2" x1="-1744" y1="1044.7" x2="-1773.6" y2="1044.7"/>
	<g id="XMLID_64_">
		<g id="XMLID_65_">
			<path id="XMLID_66_" class="st1" d="M-1780.7,1044.7c0.5,0,1,0.2,1.4,0.6c0.8,0.8,0.8,2,0.1,2.9l-4.5,4.7l4.5,4.7
				c0.8,0.8,0.7,2.1-0.1,2.9c-0.8,0.8-2.1,0.7-2.9-0.1l-5.8-6.1c-0.7-0.8-0.7-2,0-2.8l5.8-6.1
				C-1781.8,1044.9-1781.3,1044.7-1780.7,1044.7z"/>
		</g>
	</g>
	<line id="XMLID_61_" class="st2" x1="-1784.4" y1="1053" x2="-1754.8" y2="1053"/>
	<path id="XMLID_46_" class="st1" d="M-1699.2,1078.7h-24.8c-1.6,0-2.8-1.3-2.8-2.8v-49.2c0-1.6,1.3-2.8,2.8-2.8h24.8
		c1.6,0,2.8,1.3,2.8,2.8v49.2C-1696.4,1077.4-1697.7,1078.7-1699.2,1078.7z"/>
	<path id="XMLID_42_" class="st3" d="M-1718.5,1039.2h-3.6c-1,0-1.7-0.8-1.7-1.7v-3.6c0-1,0.8-1.7,1.7-1.7h3.6c1,0,1.7,0.8,1.7,1.7
		v3.6C-1716.8,1038.4-1717.5,1039.2-1718.5,1039.2z"/>
	<path id="XMLID_50_" class="st4" d="M-1709.8,1039.2h-3.6c-1,0-1.7-0.8-1.7-1.7v-3.6c0-1,0.8-1.7,1.7-1.7h3.6c1,0,1.7,0.8,1.7,1.7
		v3.6C-1708,1038.4-1708.8,1039.2-1709.8,1039.2z"/>
	<path id="XMLID_51_" class="st4" d="M-1701.1,1039.2h-3.6c-1,0-1.7-0.8-1.7-1.7v-3.6c0-1,0.8-1.7,1.7-1.7h3.6c1,0,1.7,0.8,1.7,1.7
		v3.6C-1699.3,1038.4-1700.1,1039.2-1701.1,1039.2z"/>
	<path id="XMLID_57_" class="st4" d="M-1718.5,1048.2h-3.6c-1,0-1.7-0.8-1.7-1.7v-3.6c0-1,0.8-1.7,1.7-1.7h3.6c1,0,1.7,0.8,1.7,1.7
		v3.6C-1716.8,1047.4-1717.5,1048.2-1718.5,1048.2z"/>
	<path id="XMLID_56_" class="st3" d="M-1709.8,1048.2h-3.6c-1,0-1.7-0.8-1.7-1.7v-3.6c0-1,0.8-1.7,1.7-1.7h3.6c1,0,1.7,0.8,1.7,1.7
		v3.6C-1708,1047.4-1708.8,1048.2-1709.8,1048.2z"/>
	<path id="XMLID_55_" class="st3" d="M-1701.1,1048.2h-3.6c-1,0-1.7-0.8-1.7-1.7v-3.6c0-1,0.8-1.7,1.7-1.7h3.6c1,0,1.7,0.8,1.7,1.7
		v3.6C-1699.3,1047.4-1700.1,1048.2-1701.1,1048.2z"/>
	<path id="XMLID_60_" class="st3" d="M-1718.5,1057.2h-3.6c-1,0-1.7-0.8-1.7-1.7v-3.6c0-1,0.8-1.7,1.7-1.7h3.6c1,0,1.7,0.8,1.7,1.7
		v3.6C-1716.8,1056.4-1717.5,1057.2-1718.5,1057.2z"/>
	<path id="XMLID_59_" class="st4" d="M-1709.8,1057.2h-3.6c-1,0-1.7-0.8-1.7-1.7v-3.6c0-1,0.8-1.7,1.7-1.7h3.6c1,0,1.7,0.8,1.7,1.7
		v3.6C-1708,1056.4-1708.8,1057.2-1709.8,1057.2z"/>
	<path id="XMLID_58_" class="st4" d="M-1701.1,1057.2h-3.6c-1,0-1.7-0.8-1.7-1.7v-3.6c0-1,0.8-1.7,1.7-1.7h3.6c1,0,1.7,0.8,1.7,1.7
		v3.6C-1699.3,1056.4-1700.1,1057.2-1701.1,1057.2z"/>
	<path id="XMLID_63_" class="st3" d="M-1718.5,1066.2h-3.6c-1,0-1.7-0.8-1.7-1.7v-3.6c0-1,0.8-1.7,1.7-1.7h3.6c1,0,1.7,0.8,1.7,1.7
		v3.6C-1716.8,1065.4-1717.5,1066.2-1718.5,1066.2z"/>
	<path id="XMLID_62_" class="st3" d="M-1709.8,1066.2h-3.6c-1,0-1.7-0.8-1.7-1.7v-3.6c0-1,0.8-1.7,1.7-1.7h3.6c1,0,1.7,0.8,1.7,1.7
		v3.6C-1708,1065.4-1708.8,1066.2-1709.8,1066.2z"/>
</g>
</svg>
