<?xml version="1.0" encoding="utf-8"?>
<!-- Generator: Adobe Illustrator 19.0.0, SVG Export Plug-In . SVG Version: 6.00 Build 0)  -->
<svg version="1.1" id="Calque_1" xmlns="http://www.w3.org/2000/svg" xmlns:xlink="http://www.w3.org/1999/xlink" x="0px" y="0px"
	 viewBox="-967 579.1 160.9 100.1" style="enable-background:new -967 579.1 160.9 100.1;" xml:space="preserve">
<style type="text/css">
	.st0{opacity:0.5;fill:#0E733D;enable-background:new    ;}
	.st1{fill:#FFFFFF;}
	.st2{fill:none;stroke:#C0392B;stroke-width:3;stroke-linecap:round;stroke-linejoin:round;stroke-miterlimit:10;}
	.st3{fill:#FFFFFF;stroke:#FFFFFF;stroke-width:4;stroke-linecap:round;stroke-linejoin:round;stroke-miterlimit:10;}
	.st4{fill:#FFFFFF;stroke:#C0392B;stroke-width:3;stroke-linecap:round;stroke-linejoin:round;stroke-miterlimit:10;}
	.st5{fill:#C0392B;}
	.st6{fill:#2BC070;}
	.st7{fill:#0E733D;enable-background:new    ;}
	.st8{fill:#FFFFFF;stroke:#C0392B;stroke-miterlimit:10;}
	.st9{fill:none;stroke:#C0392B;stroke-linecap:round;stroke-linejoin:round;stroke-miterlimit:10;}
	.st10{fill:#C0392B;stroke:#C0392B;stroke-miterlimit:10;}
	.st11{fill:none;stroke:#FFFFFF;stroke-linecap:round;stroke-linejoin:round;stroke-miterlimit:10;}
</style>
<ellipse id="XMLID_68_" class="st0" cx="-948.3" cy="674.1" rx="15.7" ry="2.5"/>
<path id="XMLID_3_" class="st1" d="M-833,617.4c0,21.2-25.1,38.3-56.1,38.3c-6.7,0-13.2-0.8-19.2-2.3c-3.2-0.8-17.2,6.8-20.1,5.6
	c-3.9-1.6,3.3-12.1,0.1-14.3c-10.4-7-16.9-16.7-16.9-27.4c0-21.2,25.1-38.3,56.1-38.3S-833,596.2-833,617.4z"/>
<path id="XMLID_6_" class="st2" d="M-921,610.9c0,0,0.4,12.5,9.3,17.9"/>
<title>logo-white</title>
<desc>Created with Sketch.</desc>
<g id="XMLID_52_">
	<g id="XMLID_53_">
		<path id="XMLID_48_" class="st1" d="M-868.7,422.5c-0.5,0-1-0.2-1.4-0.6c-0.8-0.8-0.8-2-0.1-2.9l4.5-4.7l-4.5-4.7
			c-0.8-0.8-0.7-2.1,0.1-2.9c0.8-0.8,2.1-0.7,2.9,0.1l5.8,6.1c0.7,0.8,0.7,2,0,2.8l-5.8,6.1C-867.6,422.2-868.2,422.5-868.7,422.5z"
			/>
	</g>
</g>
<line id="XMLID_49_" class="st3" x1="-865" y1="414.2" x2="-894.6" y2="414.2"/>
<g id="XMLID_64_">
	<g id="XMLID_65_">
		<path id="XMLID_66_" class="st1" d="M-901.7,414.2c0.5,0,1,0.2,1.4,0.6c0.8,0.8,0.8,2,0.1,2.9l-4.5,4.7l4.5,4.7
			c0.8,0.8,0.7,2.1-0.1,2.9c-0.8,0.8-2.1,0.7-2.9-0.1l-5.8-6.1c-0.7-0.8-0.7-2,0-2.8l5.8-6.1C-902.8,414.4-902.3,414.2-901.7,414.2z
			"/>
	</g>
</g>
<line id="XMLID_61_" class="st3" x1="-905.4" y1="422.5" x2="-875.8" y2="422.5"/>
<path id="XMLID_88_" class="st1" d="M-940.1,670.4h-16.2c-2.7,0-4.9-2.2-4.9-4.9v-16.2c0-2.7,2.2-4.9,4.9-4.9h16.2
	c2.7,0,4.9,2.2,4.9,4.9v16.2C-935.2,668.2-937.4,670.4-940.1,670.4z"/>
<circle id="XMLID_5_" class="st4" cx="-924.8" cy="608.5" r="9.2"/>
<circle id="XMLID_55_" class="st4" cx="-911" cy="633.4" r="9.3"/>
<g id="XMLID_20_">
	<path id="XMLID_21_" class="st5" d="M-923.7,610.5h-2.1l-0.4,1.6h-2l2.3-7.5h2.4l2.3,7.5h-2.1L-923.7,610.5z M-924,608.9l-0.1-0.5
		c-0.2-0.7-0.4-1.6-0.6-2.4h0c-0.2,0.8-0.3,1.7-0.5,2.4l-0.1,0.5H-924z"/>
</g>
<g id="XMLID_1_">
	<path id="XMLID_16_" class="st5" d="M-913.6,629.8h2.7c1.6,0,2.8,0.4,2.8,1.9c0,0.6-0.4,1.4-1.2,1.6v0c1.1,0.2,1.6,0.8,1.6,1.8
		c0,1.5-1.3,2.2-3,2.2h-2.9V629.8z M-910.9,632.7c0.6,0,0.9-0.3,0.9-0.8c0-0.5-0.3-0.6-0.9-0.6h-0.7v1.4H-910.9z M-910.8,635.8
		c0.8,0,1.2-0.3,1.2-0.9s-0.4-0.8-1.2-0.8h-0.8v1.6H-910.8z"/>
</g>
<g id="XMLID_27_">
	<path id="XMLID_28_" class="st6" d="M-848.4,612.2c0-1.2-0.8-1.9-2-1.9c-1.1,0-1.9,0.6-2.7,1.4l-2.4-2.2c1.3-1.6,3.2-2.7,5.4-2.7
		c3.4,0,5.9,1.6,5.9,5.1c0,3.7-4.4,4.8-4.1,8.3h-3.8C-852.7,616.1-848.4,614.4-848.4,612.2z M-850.2,621.9c1.5,0,2.6,1.2,2.6,2.8
		c0,1.5-1.1,2.7-2.6,2.7c-1.5,0-2.6-1.2-2.6-2.7C-852.8,623.1-851.7,621.9-850.2,621.9z"/>
</g>
<g id="XMLID_24_">
	<path id="XMLID_25_" class="st6" d="M-896.1,617.5h-5.2v-3.1h5.2V609h3.2v5.5h5.2v3.1h-5.2v5.5h-3.2V617.5z"/>
</g>
<path id="XMLID_69_" class="st7" d="M-954.5,655.6c0-3.5,2.9-6.4,6.4-6.4s6.4,2.9,6.4,6.4c0,3.5-4.4,10.7-6.4,10.7
	C-950.1,666.3-954.5,659.1-954.5,655.6z"/>
<ellipse id="XMLID_160_" class="st0" cx="-823.7" cy="673.7" rx="15.1" ry="2.5"/>
<g id="Page-1_2_">
	<g id="A4_2_" transform="translate(-321.000000, -266.000000)">
		<g id="logos_2_" transform="translate(0.000000, 233.000000)">
			<g id="logo-white_2_" transform="translate(326.000000, 37.000000)">
				<path id="XMLID_159_" class="st1" d="M-828.4,669.7c-4.5,0-8.9-1.7-12.4-5.1c-3.3-3.3-5.1-7.6-5.1-12.2s1.8-9,5.1-12.2
					c6.8-6.8,17.9-6.8,24.7,0c0.7,0.7,0.7,1.9,0,2.6c-0.7,0.7-1.9,0.7-2.6,0c-5.4-5.3-14.1-5.3-19.5,0c-2.6,2.6-4,6-4,9.6
					s1.4,7.1,4,9.6c5.4,5.3,14.1,5.3,19.5,0c0.7-0.7,1.9-0.7,2.6,0c0.7,0.7,0.7,1.9,0,2.6C-819.4,668-823.9,669.7-828.4,669.7z"/>
				<path id="XMLID_158_" class="st1" d="M-828.5,664.2c-2.9,0-5.9-1-8.1-3.2c-2.3-2.1-3.7-5.1-3.8-8.3c-0.1-3.2,1-6.3,3.2-8.6
					c4.5-4.8,12.1-5.1,16.9-0.6c0.7,0.7,0.8,1.9,0.1,2.6s-1.9,0.8-2.6,0.1c-3.3-3.1-8.6-2.9-11.7,0.4c-1.5,1.6-2.3,3.7-2.2,5.9
					c0.1,2.2,1,4.2,2.6,5.7c3.3,3.1,8.6,2.9,11.7-0.4c0.7-0.7,1.9-0.8,2.6-0.1c0.7,0.7,0.8,1.9,0.1,2.6
					C-822,663-825.3,664.2-828.5,664.2z"/>
				<path id="XMLID_157_" class="st1" d="M-828.4,659c-1.7,0-3.5-0.7-4.8-2c-1.3-1.2-2-2.9-2-4.7s0.7-3.5,2-4.7
					c2.6-2.5,6.8-2.5,9.4,0c0.7,0.7,0.7,1.9,0,2.6c-0.7,0.7-1.9,0.7-2.6,0c-1.2-1.2-3.1-1.2-4.2,0c-0.6,0.5-0.8,1.3-0.8,2
					c0,0.8,0.3,1.5,0.8,2.1c1.2,1.2,3.1,1.2,4.2,0c0.7-0.7,1.9-0.7,2.6,0c0.7,0.7,0.7,1.9,0,2.6C-825,658.4-826.7,659-828.4,659z"/>
			</g>
		</g>
	</g>
</g>
<g id="XMLID_145_">
	<g id="XMLID_544_">
		<path id="XMLID_1550_" class="st5" d="M-860.8,627c-0.6-4.3-2.2-8.5-5.5-10.5c-1.4,1.1-3.1,1.7-4.9,1.7c-1.8,0-3.5-0.6-4.9-1.7
			c-3.3,2-4.9,6.3-5.5,10.5c-0.1,0.9,0.6,1.7,1.5,1.7h17.7C-861.4,628.7-860.7,627.9-860.8,627z"/>
		<g id="XMLID_1709_">
			<path id="XMLID_148_" class="st5" d="M-871.2,604.2c-3.4,0-6.1,2.8-6.1,6.1s2.8,6.1,6.1,6.1s6.1-2.8,6.1-6.1
				S-867.8,604.2-871.2,604.2z M-871.2,608.3c-1.1,0-2,0.9-2,2c0,0.5-0.4,0.9-0.9,0.9c-0.5,0-0.9-0.4-0.9-0.9c0-2.1,1.7-3.8,3.8-3.8
				c0.5,0,0.9,0.4,0.9,0.9C-870.3,607.9-870.7,608.3-871.2,608.3z"/>
		</g>
	</g>
</g>
<path id="XMLID_144_" class="st8" d="M-883.9,731.6v-5.1c0-0.6,0.5-1,1-1h5.1c0.6,0,1,0.5,1,1v5.1c0,0.6-0.5,1-1,1h-5.1
	C-883.4,732.6-883.9,732.2-883.9,731.6z"/>
<polyline id="XMLID_7_" class="st9" points="-881.9,729.2 -880.8,730.2 -878.8,727.8 "/>
<path id="XMLID_12_" class="st8" d="M-875,731.6v-5.1c0-0.6,0.5-1,1-1h5.1c0.6,0,1,0.5,1,1v5.1c0,0.6-0.5,1-1,1h-5.1
	C-874.6,732.6-875,732.2-875,731.6z"/>
<polyline id="XMLID_11_" class="st9" points="-873,729.2 -872,730.2 -870,727.8 "/>
<path id="XMLID_14_" class="st10" d="M-866.2,731.6v-5.1c0-0.6,0.5-1,1-1h5.1c0.6,0,1,0.5,1,1v5.1c0,0.6-0.5,1-1,1h-5.1
	C-865.8,732.6-866.2,732.2-866.2,731.6z"/>
<line id="XMLID_13_" class="st11" x1="-864.2" y1="727.5" x2="-861.4" y2="730.4"/>
<line id="XMLID_15_" class="st11" x1="-861.4" y1="727.5" x2="-864.2" y2="730.4"/>
</svg>
