<?xml version="1.0" encoding="utf-8"?>
<!-- Generator: Adobe Illustrator 19.0.0, SVG Export Plug-In . SVG Version: 6.00 Build 0)  -->
<svg version="1.1" id="Calque_1" xmlns="http://www.w3.org/2000/svg" xmlns:xlink="http://www.w3.org/1999/xlink" x="0px" y="0px"
	 viewBox="-967 511.1 160.9 61.5" style="enable-background:new -967 511.1 160.9 61.5;" xml:space="preserve">
<style type="text/css">
	.st0{opacity:0.5;fill:#0E733D;}
	.st1{fill:#FFFFFF;}
	.st2{fill:#FFFFFF;stroke:#FFFFFF;stroke-width:4;stroke-linecap:round;stroke-linejoin:round;stroke-miterlimit:10;}
	.st3{fill:#2BC070;}
	.st4{fill:#C0392B;}
</style>
<ellipse id="XMLID_40_" class="st0" cx="-937.9" cy="567.2" rx="23.2" ry="3.8"/>
<ellipse id="XMLID_54_" class="st0" cx="-832.6" cy="567.2" rx="24.6" ry="4"/>
<title>logo-white</title>
<desc>Created with Sketch.</desc>
<g id="Page-1">
	<g id="A4" transform="translate(-321.000000, -266.000000)">
		<g id="logos" transform="translate(0.000000, 233.000000)">
			<g id="logo-white" transform="translate(326.000000, 37.000000)">
				<path id="XMLID_45_" class="st1" d="M-942.5,563.1c-6.9,0-13.7-2.6-19-7.8c-5.1-5-7.9-11.7-7.9-18.8s2.8-13.8,7.9-18.8
					c10.5-10.4,27.5-10.4,37.9,0c1.1,1.1,1.1,2.9,0,4c-1.1,1.1-2.9,1.1-4,0c-8.3-8.2-21.7-8.2-30,0c-4,4-6.2,9.2-6.2,14.8
					s2.2,10.9,6.2,14.8c8.3,8.2,21.7,8.2,30,0c1.1-1.1,2.9-1.1,4,0c1.1,1.1,1.1,2.9,0,4C-928.7,560.5-935.6,563.1-942.5,563.1z"/>
				<path id="XMLID_44_" class="st1" d="M-942.6,554.8c-4.5,0-9-1.6-12.5-4.9c-3.6-3.3-5.7-7.9-5.8-12.8c-0.2-4.9,1.6-9.6,4.9-13.2
					c6.9-7.4,18.6-7.8,26-0.9c1.1,1.1,1.2,2.9,0.1,4c-1.1,1.1-2.9,1.2-4,0.1c-5.1-4.8-13.2-4.5-18,0.6c-2.3,2.5-3.5,5.7-3.4,9.1
					c0.1,3.4,1.5,6.5,4,8.8c5.1,4.8,13.2,4.5,18-0.6c1.1-1.1,2.9-1.2,4-0.1c1.1,1.1,1.2,2.9,0.1,4
					C-932.7,552.9-937.7,554.8-942.6,554.8z"/>
				<path id="XMLID_43_" class="st1" d="M-942.4,546.8c-2.6,0-5.3-1-7.3-3c-2-1.9-3-4.5-3-7.2c0-2.7,1.1-5.3,3-7.2
					c4-3.9,10.5-3.9,14.5,0c1.1,1.1,1.1,2.9,0,4c-1.1,1.1-2.9,1.1-4,0c-1.8-1.8-4.7-1.8-6.5,0c-0.9,0.8-1.3,2-1.3,3.1
					c0,1.2,0.5,2.3,1.3,3.2c1.8,1.8,4.7,1.8,6.5,0c1.1-1.1,2.9-1.1,4,0c1.1,1.1,1.1,2.9,0,4C-937.2,545.8-939.8,546.8-942.4,546.8z"
					/>
			</g>
		</g>
	</g>
</g>
<g id="XMLID_52_">
	<g id="XMLID_53_">
		<path id="XMLID_48_" class="st1" d="M-868.7,542.5c-0.5,0-1-0.2-1.4-0.6c-0.8-0.8-0.8-2-0.1-2.9l4.5-4.7l-4.5-4.7
			c-0.8-0.8-0.7-2.1,0.1-2.9c0.8-0.8,2.1-0.7,2.9,0.1l5.8,6.1c0.7,0.8,0.7,2,0,2.8l-5.8,6.1C-867.6,542.2-868.2,542.5-868.7,542.5z"
			/>
	</g>
</g>
<line id="XMLID_49_" class="st2" x1="-865" y1="534.2" x2="-894.6" y2="534.2"/>
<g id="XMLID_64_">
	<g id="XMLID_65_">
		<path id="XMLID_66_" class="st1" d="M-901.7,534.2c0.5,0,1,0.2,1.4,0.6c0.8,0.8,0.8,2,0.1,2.9l-4.5,4.7l4.5,4.7
			c0.8,0.8,0.7,2.1-0.1,2.9c-0.8,0.8-2.1,0.7-2.9-0.1l-5.8-6.1c-0.7-0.8-0.7-2,0-2.8l5.8-6.1C-902.8,534.4-902.3,534.2-901.7,534.2z
			"/>
	</g>
</g>
<line id="XMLID_61_" class="st2" x1="-905.4" y1="542.5" x2="-875.8" y2="542.5"/>
<path id="XMLID_46_" class="st1" d="M-820.2,568.2H-845c-1.6,0-2.8-1.3-2.8-2.8v-49.2c0-1.6,1.3-2.8,2.8-2.8h24.8
	c1.6,0,2.8,1.3,2.8,2.8v49.2C-817.4,566.9-818.7,568.2-820.2,568.2z"/>
<path id="XMLID_42_" class="st3" d="M-839.5,528.7h-3.6c-1,0-1.7-0.8-1.7-1.7v-3.6c0-1,0.8-1.7,1.7-1.7h3.6c1,0,1.7,0.8,1.7,1.7v3.6
	C-837.8,527.9-838.5,528.7-839.5,528.7z"/>
<path id="XMLID_50_" class="st4" d="M-830.8,528.7h-3.6c-1,0-1.7-0.8-1.7-1.7v-3.6c0-1,0.8-1.7,1.7-1.7h3.6c1,0,1.7,0.8,1.7,1.7v3.6
	C-829,527.9-829.8,528.7-830.8,528.7z"/>
<path id="XMLID_51_" class="st4" d="M-822.1,528.7h-3.6c-1,0-1.7-0.8-1.7-1.7v-3.6c0-1,0.8-1.7,1.7-1.7h3.6c1,0,1.7,0.8,1.7,1.7v3.6
	C-820.3,527.9-821.1,528.7-822.1,528.7z"/>
<path id="XMLID_57_" class="st4" d="M-839.5,537.7h-3.6c-1,0-1.7-0.8-1.7-1.7v-3.6c0-1,0.8-1.7,1.7-1.7h3.6c1,0,1.7,0.8,1.7,1.7v3.6
	C-837.8,536.9-838.5,537.7-839.5,537.7z"/>
<path id="XMLID_56_" class="st3" d="M-830.8,537.7h-3.6c-1,0-1.7-0.8-1.7-1.7v-3.6c0-1,0.8-1.7,1.7-1.7h3.6c1,0,1.7,0.8,1.7,1.7v3.6
	C-829,536.9-829.8,537.7-830.8,537.7z"/>
<path id="XMLID_55_" class="st3" d="M-822.1,537.7h-3.6c-1,0-1.7-0.8-1.7-1.7v-3.6c0-1,0.8-1.7,1.7-1.7h3.6c1,0,1.7,0.8,1.7,1.7v3.6
	C-820.3,536.9-821.1,537.7-822.1,537.7z"/>
<path id="XMLID_60_" class="st3" d="M-839.5,546.7h-3.6c-1,0-1.7-0.8-1.7-1.7v-3.6c0-1,0.8-1.7,1.7-1.7h3.6c1,0,1.7,0.8,1.7,1.7v3.6
	C-837.8,545.9-838.5,546.7-839.5,546.7z"/>
<path id="XMLID_59_" class="st4" d="M-830.8,546.7h-3.6c-1,0-1.7-0.8-1.7-1.7v-3.6c0-1,0.8-1.7,1.7-1.7h3.6c1,0,1.7,0.8,1.7,1.7v3.6
	C-829,545.9-829.8,546.7-830.8,546.7z"/>
<path id="XMLID_58_" class="st4" d="M-822.1,546.7h-3.6c-1,0-1.7-0.8-1.7-1.7v-3.6c0-1,0.8-1.7,1.7-1.7h3.6c1,0,1.7,0.8,1.7,1.7v3.6
	C-820.3,545.9-821.1,546.7-822.1,546.7z"/>
<path id="XMLID_63_" class="st3" d="M-839.5,555.7h-3.6c-1,0-1.7-0.8-1.7-1.7v-3.6c0-1,0.8-1.7,1.7-1.7h3.6c1,0,1.7,0.8,1.7,1.7v3.6
	C-837.8,554.9-838.5,555.7-839.5,555.7z"/>
<path id="XMLID_62_" class="st3" d="M-830.8,555.7h-3.6c-1,0-1.7-0.8-1.7-1.7v-3.6c0-1,0.8-1.7,1.7-1.7h3.6c1,0,1.7,0.8,1.7,1.7v3.6
	C-829,554.9-829.8,555.7-830.8,555.7z"/>
</svg>
